<?xml version="1.0" encoding="UTF-8" standalone="no"?>
<svg
   version="1.1"
   viewBox="0 0 1722.3894 745.99847"
   id="svg186"
   sodipodi:docname="grove-hooks.svg"
   width="1722.3894"
   height="745.99847"
   inkscape:version="1.4.2 (ebf0e940, 2025-05-08)"
   xmlns:inkscape="http://www.inkscape.org/namespaces/inkscape"
   xmlns:sodipodi="http://sodipodi.sourceforge.net/DTD/sodipodi-0.dtd"
   xmlns="http://www.w3.org/2000/svg"
   xmlns:svg="http://www.w3.org/2000/svg">
  <defs
     id="defs186" />
  <sodipodi:namedview
     id="namedview186"
     pagecolor="#ffffff"
     bordercolor="#000000"
     borderopacity="0.25"
     inkscape:showpageshadow="2"
     inkscape:pageopacity="0.0"
     inkscape:pagecheckerboard="0"
     inkscape:deskcolor="#d1d1d1"
     inkscape:zoom="0.57452426"
     inkscape:cx="866.80413"
     inkscape:cy="344.63297"
     inkscape:window-width="1920"
     inkscape:window-height="1227"
     inkscape:window-x="0"
     inkscape:window-y="25"
     inkscape:window-maximized="0"
     inkscape:current-layer="svg186" />
  <path
     fill="#090500"
     d="m 612.20605,703.1657 q -0.73,1.97 -1.66,-1.68 c -3.72,-14.68 -10.95,-28.69 -21.61,-39.57 q -7.38,-7.53 -9.08,-8.78 -13.7,-10.14 -27.8,-15.2 c -5.17,-1.86 -9.53,-3.75 -14.06,-5.1 q -17.31,-5.17 -36.31,-11.93 -0.64,-0.22 -0.83,-0.36 a 2.07,2.07 0 0 1 0.34,-3.56 q 13.21,-6.05 27.23,-14.59 10.95,-6.68 20.76,-14.99 c 2.65,-2.24 4.69,-3.48 6.91,-5.78 5.36,-5.54 13.23,-12.82 18.65,-19.07 q 8.71,-10.05 16.28,-21.72 4.8,-7.4 10.05,-18.77 6.49,-14.03 8.95,-19.33 1.3,-2.79 2.94,-4.9 a 3.84,3.9 8.1 0 1 1.57,-1.2 q 0.86,-0.37 4.33,-1.25 3.7,-0.94 6.72,-3.61 c 2.79,-2.47 4.98,-4.27 6.24,-6.37 3.2,-5.31 3.66,-11.93 3.06,-17.59 -0.65,-6.31 -6.13,-9.91 -12.36,-8.77 -1.71,0.31 -3.64,1.79 -3.78,3.47 q -0.51,6.01 -2.12,7.97 a 0.63,0.63 0 0 0 0.49,1.03 h 0.48 a 2.01,2.01 0 0 0 1.74,-1 q 1.26,-2.16 1.54,-4.74 c 0.28,-2.5 3.29,-3.01 4.66,-1.08 q 1.05,1.48 1.17,2.12 1.97,10.22 -6.73,16.65 -0.86,0.64 -1.92,0.07 c 5.64,-3.66 9.93,-11.48 6.67,-18.13 a 1.29,1.29 0 0 0 -2.44,0.41 q -0.58,4.56 -4.21,7.13 a 2.1,2.1 0 0 0 -0.88,1.69 l -0.08,8.17 q -0.64,0.55 -0.79,-0.35 -0.74,-4.42 0.25,-10.4 a 0.62,0.61 11.8 0 0 -0.46,-0.69 q -4.27,-1.06 -6.98,-2.7 c -6.85,-4.14 -0.07,-11.09 3.88,-15.25 3.58,-3.76 8.6,-6.11 13.66,-9.76 6.61,-4.76 8.97,-10.13 9.07,-18.43 q 0.18,-14.19 -9.02,-25.02 a 2.25,2.25 0 0 1 1.13,-3.64 q 15.31,-4.08 26.8,-15.32 2.51,-2.46 5.22,-0.65 c 8.01,5.35 15.61,9.77 24.7,12.29 q 18.51,5.13 36.79,-0.83 4.89,-1.6 9.3,-3.9 6.72,-3.52 8.74,-5.01 18.75,-13.86 25.84,-36.16 a 2.82,2.86 85.2 0 1 1.44,-1.68 q 4.59,-2.27 10.34,-5.83 5.69,-3.52 9.58,-7.13 25.17,-23.39 23.82,-59.26 -0.07,-1.82 -0.87,-6.46 c -1.8,-10.47 -5.35,-20.46 -11.71,-29.47 q -4.58,-6.49 -7.48,-9.53 -10.22,-10.67 -24.29,-16.55 a 3.05,3.06 11.6 0 1 -1.88,-2.85 l 0.04,-4.31 a 0.66,0.96 28.7 0 0 -0.02,-0.19 c -0.75,-3.84 -1.14,-8.15 -2,-11.36 q -3.83,-14.19 -12.94,-25.71 c -2.2,-2.78 -4.96,-5 -7.63,-7.82 q -2.87,-3.03 -6.19,-5.24 -10.54,-7.02 -23.66,-9.96 c -2,-0.45 -3.95,-0.32 -6.23,-0.85 q -3.48,-0.81 -7.53,-0.97 -2.58,-0.1 -2.93,-1.68 -2.84,-12.9 -9.32,-22.09 -9.04,-12.81 -23.11,-20.299996 c -4.04,-2.15 -10.1,-3.78 -13.88,-5.36 a 13.23,13.13 59.3 0 0 -3.48,-0.9 c -1.91,-0.22 -2.84,-0.29 -5.44,-0.88 q -7.44,-1.7 -15.23,-0.78 -8.27,0.99 -13.82,2.04 -2.67,0.51 -3.66,-1.8 c -7.85,-18.34 -23.29,-32.45 -41.69,-39.53 -2.59,-1 -5.06,-1.37 -7.46,-2.59 q -0.65,-0.33 -5.18,-0.73 a 8.65,8.31 54.3 0 1 -1.52,-0.28 q -4.36,-1.28 -6.7,-1.2 c -4.97,0.16 -9.35,-0.22 -13.98,0.33 q -8.67,1.03 -18.43,3.63 c -2.33,0.62 -5.73,3.25 -7.31,-0.4 -3.24,-7.47 -8.57,-16.03 -14.8,-22.06 -3.92,-3.8 -6.93,-7.26 -10.95,-10.09 q -7.97,-5.6 -17.04,-9.4899998 -1.64,-0.71 -11.47,-3.39 -2.86,-0.78 -6.76,-1.32 -2.77,-0.38 -6.81,-1.04 -4.5,-0.73 -9.47,-0.37 -12.76,0.92 -24.61,4.47 -7.73,2.31 -11.64,4.6199998 -3.56,2.11 -5.33,3.15 c -4.39,2.56 -7.85,5.89 -11.11,8.09 -2.65,1.79 -3.89,4.37 -5.54,6.46 q -1.96,2.48 -3.87,0.96 -6.92,-5.5 -13.91,-8.36 -6.36,-2.61 -6.58,-2.72 a 1.12,1.39 72.6 0 0 -0.28,-0.11 l -9.45,-2.27 a 2.46,2.43 49.7 0 0 -0.79,-0.07 q -4.78,0.39 -5.6,0.23 -7.32,-1.4 -11.07,-1.11 c -5.85,0.45 -11.13,0.34 -15.98,1.35 -13.95,2.89 -26.49,10.68 -36.85,20.55 -6.2,5.91 -11.37,13.56 -14.95,21.09 a 2.21,2.22 25.3 0 1 -2.94,1.06 q -6.89,-3.22 -15.09,-5.35 a 4.3,4.09 50.2 0 0 -1.11,-0.13 l -5.29,0.05 a 1.21,1.08 48.3 0 1 -0.26,-0.03 q -4.92,-1.21 -9.72,-1.08 c -10.74,0.28 -21.42,2.23 -31.19,6.73 -4.34,2 -8.09,5.31 -11.97,7.62 a 5.7,5.74 5.8 0 0 -1.35,1.11 q -2.8,3.18 -5.7,5.16 a 8.58,8.51 4 0 0 -1.44,1.24 q -4.4,4.73 -6.29,7.11 -2.96,3.72 -8.14,14.17 -1.57,3.17 -5.18,2.99 -2.92,-0.15 -4.97,0.15 -4.07,0.6 -9.85,1.369996 c -17.19,2.29 -30.14,11.51 -41.13,24.36 q -7.75,9.06 -11.87,22.39 -2.5,8.11 -2.73,11.1 -0.39,5.14 -0.26,13.08 a 2.47,2.47 0 0 1 -1.84,2.43 c -6.659998,1.74 -13.579998,2.7 -19.029998,5.03 q -10.9,4.64 -18.47,10.27 -2.46,1.83 -9.45,8.49 -4.53,4.31 -7.79,8.79 -4.42,6.06 -6.27,10 -4.8099998,10.26 -6.0399998,14.64 -2.78,9.91 -2.85,14.04 -0.11,7.48 -0.28,9.63 a 21.06,21.13 42 0 0 0.28,5.56 c 0.59,3.22 0.61,6.64 1.33,10.01 q 2.26,10.53 7.6699998,20.23 c 1.73,3.11 2.78,4.05 1.22,6.98 q -1.99,3.74 -3.1899998,7.8 c -2.55,8.64 -4.03,17.52 -2.81,26.76 q 1.3,9.86 3.51,16.09 2.6299998,7.38 9.2199998,17.11 1.92,2.84 4.94,5.87 4.58,4.61 5.35,5.17 c 8.32,6.06 15.01,10.62 24.45,13.19 q 9.93,2.71 11.88,2.89 8.899998,0.82 17.639998,-0.04 4.55,-0.44 11.6,-2.76 c 1.66,-0.54 3.29,-0.84 5.13,-1.41 a 3.98,3.97 57.2 0 1 3.83,0.83 q 6.97,6.25 11.83,9.72 3.35,2.39 12.08,5.42 c 3.87,1.34 8.1,0.94 12.42,1.74 a 8.79,8.64 45.5 0 0 2.96,0.05 c 4.2,-0.66 8.32,-0.49 12.65,-1.83 10.58,-3.29 17.88,-8.76 26.52,-16.6 q 0.72,-0.66 3.42,-2.13 a 1.29,1.32 38.9 0 1 1,-0.12 q 6.83,1.89 15.01,2.96 3.95,0.51 2.56,4.01 c -2.96,7.47 -5.18,12.58 -4.93,20.26 q 0.04,1.02 -0.68,1.59 a 0.31,0.31 0 0 1 -0.5,-0.24 l -0.07,-4.52 c 0.27,-6.43 3.01,-12.25 5.25,-18.27 a 0.92,0.92 0 0 0 -0.67,-1.22 l -15.98,-3.36 a 0.82,0.88 43.1 0 0 -0.46,0.03 q -1.97,0.68 -3.12,1.8 c -9.22,8.95 -20.54,16.71 -33.21,18.49 -18.98,2.67 -33.5,-3.22 -46.89,-16.78 a 2.11,2.13 58.3 0 0 -2.19,-0.51 q -30.41,10.48 -57.149998,-2.25 c -34.0399998,-16.2 -49.3299998,-57.17 -32.16,-91.12 a 2.39,2.38 42.2 0 0 -0.12,-2.34 q -7.2799998,-11.44 -9.7999998,-25.41 c -5.23,-28.94 4.87,-57.23 26.8099998,-76.34 q 17.69,-15.41 42.539998,-19.18 a 1.64,1.64 0 0 0 1.39,-1.7 q -0.88,-18.1 6.47,-33.61 c 12.53,-26.43 38.01,-40.429996 67.11,-40.249996 a 1.77,1.77 0 0 0 1.58,-0.97 q 2.09,-4.2 4.06,-7.58 c 11.42,-19.6 30.88,-33.68 53.57,-36.87 q 10.44,-1.46 23.43,0.03 c 6.81,0.78 13.44,3.3 19.52,6.17 a 0.69,0.68 25.2 0 0 0.91,-0.32 q 16.32,-33.29 52.61,-42.46 10.85,-2.73 25.59,-1.78 21.48,1.38 39.01,14.98 a 1,1.01 39.5 0 0 1.38,-0.14 c 20.9,-24.2999998 55.23,-33.3299998 85.63,-24.7399998 21.8,6.16 38.73,19.7799998 49.9,39.4799998 q 1.29,2.27 3.51,6.73 a 0.97,0.96 65.7 0 0 1.22,0.47 c 39.68,-16.18 83.32,1.58 100.79,39.74 a 1.35,1.35 0 0 0 1.53,0.75 c 14.35,-3.27 28.62,-3.2 42.68,1.7 q 34.91,12.139996 43.76,47.619996 a 1.39,1.39 0 0 0 1.36,1.05 c 25.77,-0.31 47.01,13.45 59.35,35.68 q 8.32,14.98 8.35,32.09 a 1.29,1.28 11.4 0 0 0.79,1.18 q 19.03,7.95 31.27,24.83 16.06,22.13 13.79,50.01 c -2.22,27.37 -18.72,50.18 -43.47,61.55 a 2.68,2.67 87.1 0 0 -1.41,1.57 q -10.34,30.66 -38.1,43.03 c -20.18,9 -40.73,7.78 -59.83,-3.15 q -4.09,-2.34 -9.72,-6.39 a 1.47,1.48 43.6 0 0 -1.79,0.05 q -0.99,0.8 -5.76,4.74 -10.37,8.59 -23.26,12.05 a 0.96,0.96 0 0 0 -0.47,1.56 q 9.54,10.74 9.69,25.35 0.15,13.77 -11.6,21.17 c -7.27,4.57 -12.66,7.67 -16.64,14.35 -3.71,6.25 0.96,7.65 5.93,9.25 a 1.1,1.1 0 0 0 1.4,-0.77 q 0.41,-1.63 0.57,-3.28 c 1.41,-14.19 17.95,-8.54 19.35,2.14 1.6,12.27 -3.13,21.93 -13.86,27.81 -1.69,0.92 -4.64,1.3 -6.61,1.93 a 3.09,3.16 14.2 0 0 -1.26,0.77 q -1.94,1.92 -2.76,3.71 c -9.64,21.12 -15.6,35.26 -27.51,50.93 q -24.3,31.97 -58.72,52.81 c -7.27,4.4 -15.08,8.11 -23.94,12.55 a 0.78,0.78 0 0 0 0.1,1.44 c 9.96,3.36 19.09,6.47 29.84,9.58 15.03,4.35 30.85,10.18 43.44,18.87 q 28.57,19.72 37.33,55.04 z"
     id="path115" />
  <path
     fill="#143105"
     d="m 617.11605,482.8057 q 0.01,0.52 0.3,0.73 0.28,0.22 0.64,0 1.06,0.57 1.92,-0.07 8.7,-6.43 6.73,-16.65 -0.12,-0.64 -1.17,-2.12 c -1.37,-1.93 -4.38,-1.42 -4.66,1.08 q -0.28,2.58 -1.54,4.74 a 2.01,2.01 0 0 1 -1.74,1 h -0.48 a 0.63,0.63 0 0 1 -0.49,-1.03 q 1.61,-1.96 2.12,-7.97 c 0.14,-1.68 2.07,-3.16 3.78,-3.47 6.23,-1.14 11.71,2.46 12.36,8.77 0.6,5.66 0.14,12.28 -3.06,17.59 -1.26,2.1 -3.45,3.9 -6.24,6.37 q -3.02,2.67 -6.72,3.61 -3.47,0.88 -4.33,1.25 a 3.84,3.9 8.1 0 0 -1.57,1.2 q -1.64,2.11 -2.94,4.9 -2.46,5.3 -8.95,19.33 -5.25,11.37 -10.05,18.77 -7.57,11.67 -16.28,21.72 c -5.42,6.25 -13.29,13.53 -18.65,19.07 -2.22,2.3 -4.26,3.54 -6.91,5.78 q -9.81,8.31 -20.76,14.99 -14.02,8.54 -27.23,14.59 a 2.07,2.07 0 0 0 -0.34,3.56 q 0.19,0.14 0.83,0.36 19,6.76 36.31,11.93 c 4.53,1.35 8.89,3.24 14.06,5.1 q 14.1,5.06 27.8,15.2 1.7,1.25 9.08,8.78 c 10.66,10.88 17.89,24.89 21.61,39.57 q 0.93,3.65 1.66,1.68 l 0.38,1.43 q 0.18,2.99 0.37,6.25 0.25,4.51 -4.04,5.01 -6.95,0.8 -14.07,0.93 -0.48,-21.19 -12.99,-37.39 -5.67,-7.33 -10.99,-11.77 c -13.29,-11.07 -31.57,-18.08 -48.38,-22.72 q -11.99,-3.31 -19.54,-6.42 -17.43,-7.16 -24.69,-11.02 -1.75,-0.92 -3.63,-0.42 -12.81,3.42 -25.96,5.09 -21.11,1.66 -34.29,1.64 -9.66,-0.02 -25.14,-1.76 -22.65,-3.6 -44.5,-10.8 a 2.22,2.24 38.7 0 0 -1.85,0.21 q -8,4.77 -15.77,8.11 -8.53,3.66 -27.52,9.03 -6.7,1.89 -32.01,8.46 c -23.6,6.12 -42.4,18.69 -53.37,40.69 q -6.46,12.96 -7.99,27.65 -9.02,-1.26 -12.66,-3.21 -2.13,-1.13 -4.5,-1.93 a 0.25,0.25 0 0 1 0.01,-0.48 l 0.81,-0.24 q 1.12,0.6 1.8,0.33 a 0.58,0.57 83.8 0 0 0.36,-0.45 q 5.23,-34.35 31.63,-57.43 11.48,-10.04 25.07,-15.51 10.16,-4.09 16.4,-5.81 15.83,-4.35 47.55,-13.7 4.51,-1.33 9.32,-3.39 a 0.72,0.72 0 0 0 0.06,-1.29 q -5.56,-3.1 -8.2,-4.64 -34.65,-20.16 -60.42,-49.73 c -4.83,-5.54 -10.25,-13.16 -14.84,-18.55 a 3.53,3.63 18.1 0 1 -0.78,-1.59 l -1.32,-6.31 a 6.57,6.87 24.5 0 0 -0.56,-1.6 c -7.09,-14.41 -13.06,-28.9 -16.89,-44.62 a 1.9,1.9 0 0 0 -1.35,-1.38 q -2.28,-0.63 -4.57,-1.26 c -8.81,-2.44 -15.72,-10.61 -16.98,-19.63 -1.16,-8.26 -0.24,-15.79 8.13,-19.14 9.05,-3.62 11.85,3.11 12.97,10.45 a 1.18,1.18 0 0 0 1.64,0.91 c 2.78,-1.2 5.59,-3.44 6.06,-6.54 a 2.01,1.97 39.6 0 0 -0.1,-0.96 c -2.01,-5.64 -6.95,-9.58 -11.94,-12.5 q -5.35,-3.14 -6.69,-4.17 -10.21,-7.86 -8.38,-22.12 l 0.07,4.52 a 0.31,0.31 0 0 0 0.5,0.24 q 0.72,-0.57 0.68,-1.59 c -0.25,-7.68 1.97,-12.79 4.93,-20.26 q 1.39,-3.5 -2.56,-4.01 -8.18,-1.07 -15.01,-2.96 a 1.29,1.32 38.9 0 0 -1,0.12 q -2.7,1.47 -3.42,2.13 c -8.64,7.84 -15.94,13.31 -26.52,16.6 -4.33,1.34 -8.45,1.17 -12.65,1.83 a 8.79,8.64 45.5 0 1 -2.96,-0.05 c -4.32,-0.8 -8.55,-0.4 -12.42,-1.74 q -8.73,-3.03 -12.08,-5.42 -4.86,-3.47 -11.83,-9.72 a 3.98,3.97 57.2 0 0 -3.83,-0.83 c -1.84,0.57 -3.47,0.87 -5.13,1.41 q -7.05,2.32 -11.6,2.76 -8.74,0.86 -17.639998,0.04 -1.95,-0.18 -11.88,-2.89 c -9.44,-2.57 -16.13,-7.13 -24.45,-13.19 q -0.77,-0.56 -5.35,-5.17 -3.02,-3.03 -4.94,-5.87 -6.59,-9.73 -9.2199998,-17.11 -2.21,-6.23 -3.51,-16.09 c -1.22,-9.24 0.26,-18.12 2.81,-26.76 q 1.1999998,-4.06 3.1899998,-7.8 c 1.56,-2.93 0.51,-3.87 -1.22,-6.98 q -5.4099998,-9.7 -7.6699998,-20.23 c -0.72,-3.37 -0.74,-6.79 -1.33,-10.01 a 21.06,21.13 42 0 1 -0.28,-5.56 q 0.17,-2.15 0.28,-9.63 0.07,-4.13 2.85,-14.04 1.23,-4.38 6.0399998,-14.64 1.85,-3.94 6.27,-10 3.26,-4.48 7.79,-8.79 6.99,-6.66 9.45,-8.49 7.57,-5.63 18.47,-10.27 c 5.45,-2.33 12.37,-3.29 19.029998,-5.03 a 2.47,2.47 0 0 0 1.84,-2.43 q -0.13,-7.94 0.26,-13.08 0.23,-2.99 2.73,-11.1 4.12,-13.33 11.87,-22.39 c 10.99,-12.85 23.94,-22.07 41.13,-24.36 q 5.78,-0.769996 9.85,-1.369996 2.05,-0.3 4.97,-0.15 3.61,0.18 5.18,-2.99 5.18,-10.45 8.14,-14.17 1.89,-2.38 6.29,-7.11 a 8.58,8.51 4 0 1 1.44,-1.24 q 2.9,-1.98 5.7,-5.16 a 5.7,5.74 5.8 0 1 1.35,-1.11 c 3.88,-2.31 7.63,-5.62 11.97,-7.62 9.77,-4.5 20.45,-6.45 31.19,-6.73 q 4.8,-0.13 9.72,1.08 a 1.21,1.08 48.3 0 0 0.26,0.03 l 5.29,-0.05 a 4.3,4.09 50.2 0 1 1.11,0.13 q 8.2,2.13 15.09,5.35 a 2.21,2.22 25.3 0 0 2.94,-1.06 c 3.58,-7.53 8.75,-15.18 14.95,-21.09 10.36,-9.87 22.9,-17.66 36.85,-20.55 4.85,-1.01 10.13,-0.9 15.98,-1.35 q 3.75,-0.29 11.07,1.11 0.82,0.16 5.6,-0.23 a 2.46,2.43 49.7 0 1 0.79,0.07 l 9.45,2.27 a 1.12,1.39 72.6 0 1 0.28,0.11 q 0.22,0.11 6.58,2.72 6.99,2.86 13.91,8.36 1.91,1.52 3.87,-0.96 c 1.65,-2.09 2.89,-4.67 5.54,-6.46 3.26,-2.2 6.72,-5.53 11.11,-8.09 q 1.77,-1.04 5.33,-3.15 3.91,-2.3099998 11.64,-4.6199998 11.85,-3.55 24.61,-4.47 4.97,-0.36 9.47,0.37 4.04,0.66 6.81,1.04 3.9,0.54 6.76,1.32 9.83,2.68 11.47,3.39 9.07,3.8899998 17.04,9.4899998 c 4.02,2.83 7.03,6.29 10.95,10.09 6.23,6.03 11.56,14.59 14.8,22.06 1.58,3.65 4.98,1.02 7.31,0.4 q 9.76,-2.6 18.43,-3.63 c 4.63,-0.55 9.01,-0.17 13.98,-0.33 q 2.34,-0.08 6.7,1.2 a 8.65,8.31 54.3 0 0 1.52,0.28 q 4.53,0.4 5.18,0.73 c 2.4,1.22 4.87,1.59 7.46,2.59 18.4,7.08 33.84,21.19 41.69,39.53 q 0.99,2.31 3.66,1.8 5.55,-1.05 13.82,-2.04 7.79,-0.92 15.23,0.78 c 2.6,0.59 3.53,0.66 5.44,0.88 a 13.23,13.13 59.3 0 1 3.48,0.9 c 3.78,1.58 9.84,3.21 13.88,5.36 q 14.07,7.489996 23.11,20.299996 6.48,9.19 9.32,22.09 0.35,1.58 2.93,1.68 4.05,0.16 7.53,0.97 c 2.28,0.53 4.23,0.4 6.23,0.85 q 13.12,2.94 23.66,9.96 3.32,2.21 6.19,5.24 c 2.67,2.82 5.43,5.04 7.63,7.82 q 9.11,11.52 12.94,25.71 c 0.86,3.21 1.25,7.52 2,11.36 a 0.66,0.96 28.7 0 1 0.02,0.19 l -0.04,4.31 a 3.05,3.06 11.6 0 0 1.88,2.85 q 14.07,5.88 24.29,16.55 2.9,3.04 7.48,9.53 c 6.36,9.01 9.91,19 11.71,29.47 q 0.8,4.64 0.87,6.46 1.35,35.87 -23.82,59.26 -3.89,3.61 -9.58,7.13 -5.75,3.56 -10.34,5.83 a 2.82,2.86 85.2 0 0 -1.44,1.68 q -7.09,22.3 -25.84,36.16 -2.02,1.49 -8.74,5.01 -4.41,2.3 -9.3,3.9 -18.28,5.96 -36.79,0.83 c -9.09,-2.52 -16.69,-6.94 -24.7,-12.29 q -2.71,-1.81 -5.22,0.65 -11.49,11.24 -26.8,15.32 a 2.25,2.25 0 0 0 -1.13,3.64 q 9.2,10.83 9.02,25.02 c -0.1,8.3 -2.46,13.67 -9.07,18.43 -5.06,3.65 -10.08,6 -13.66,9.76 -3.95,4.16 -10.73,11.11 -3.88,15.25 q 2.71,1.64 6.98,2.7 a 0.62,0.61 11.8 0 1 0.46,0.69 q -0.99,5.98 -0.25,10.4 0.15,0.9 0.79,0.35 z M 33.386052,216.0357 q -15.15,19.23 -12.1,43.21 2.2,17.25 15.96,31.49 -1.29,4.81 -4.29,9.74 -3.14,5.18 -3.87,7.26 c -4.24,12.01 -4.35,26.08 1.26,37.74 6.46,13.39 19.66,22.33 33.5,24.99 15.229998,2.91 28.929998,-1.75 43.529998,-6.13 q 4,-1.2 5.94,1.85 2.66,4.19 4.87,7.27 c 7.69,10.67 21.19,14.52 33.34,9.79 q 6.68,-2.6 12.64,-6.58 a 0.96,0.96 0 0 0 0.08,-1.55 c -8.06,-6.62 -14.73,-11.36 -20.47,-17.73 q -11.77,-13.06 -14.01,-15.55 a 4.36,4.37 71.7 0 0 -2.84,-1.43 c -4.5,-0.45 -14.42,-2.56 -17.34,-6.68 q -1.44,-2.02 -1.12,-5.86 0.66,-8.05 7.49,-10.87 8.69,2.41 12.19,2.75 20.55,2 37.32,-8.82 8.61,-5.56 16.64,-16.85 c 2.12,-2.98 4.12,-5.18 7.65,-3.12 9.46,5.54 17.86,9 29.12,9.05 q 15.93,0.07 28.57,-9.55 c 8.45,-6.44 14.4,-13.77 17.4,-23.74 q 1.49,-4.95 1.94,-5.48 c 3.61,-4.3 7.28,-2.02 11.91,1.09 11.55,7.76 25.2,9.59 38.69,8.3 14.3,-1.36 25.8,-8.75 36.18,-18.33 q 1.93,-1.78 4.51,-2.79 a 1.42,1.43 49.1 0 1 1.18,0.08 q 1.67,0.9 2.31,2.02 3.82,6.65 8.41,12.22 c 13.45,16.35 34.14,24.14 54.94,22.46 17.15,-1.39 32.18,-9.57 42.97,-22.47 q 5.7,-6.82 5.78,-14.7 0,-0.11 0.08,-3.74 a 0.65,0.66 75 0 1 0.34,-0.57 q 0.69,-0.39 1.54,0.41 -0.73,1.92 -0.05,4.5 2.87,10.92 9.14,18.6 7.63,9.35 17.96,13.29 13.44,5.13 27.43,2.87 c 6.26,-1.02 11.99,-2.36 16.52,-5.97 3.61,-2.89 6.6,-4.31 9.79,-0.61 q 3.34,3.86 6.61,9.61 c 5.49,9.63 16.88,15.41 27.36,17.7 15,3.29 32.39,1.74 45.24,-7.55 q 2.7,-1.95 4.31,-0.05 14.86,17.43 38.21,16.69 8.27,-0.26 12.97,-1.73 11.88,-3.71 22.68,-13.65 2.55,-2.34 3.47,-2.63 c 9.62,-2.97 7.94,11.66 5.88,16.11 -7.53,16.26 -29.48,23.22 -46.03,23.51 -13.93,0.25 -28.16,-6.01 -40.17,-13.09 a 2.72,2.76 50.2 0 0 -2.37,-0.2 q -3.99,1.5 -7.92,2.3 -11.61,2.38 -23.26,2.18 a 2.67,2.68 16.9 0 0 -2.31,1.24 c -8.61,13.62 -20.18,25.18 -32.48,34.64 a 0.81,0.8 50.7 0 0 -0.11,1.17 c 4.25,4.81 9.38,6.51 15.65,8.98 12.6,4.95 25.17,6.14 38.52,2.97 q 11.64,-2.77 20.94,-11.76 3.87,-3.74 12.76,-12.48 c 3.98,-3.9 6.63,4.12 8.28,5.78 12.16,12.2 29.28,18.67 45.84,15.78 15.9,-2.79 29.35,-15.77 35.23,-30.94 1.37,-3.51 1.78,-7.52 2.65,-10.87 a 2.36,2.37 86.5 0 1 1.45,-1.63 q 8.67,-3.34 15.9,-7.76 c 13.2,-8.08 22.6,-22.31 24.35,-37.81 2.82,-25.15 -9.68,-45.39 -32.91,-54.63 -7.29,-2.91 -15.11,-1.59 -13.84,-12.42 0.89,-7.59 0.62,-16.6 -1.75,-23.72 q -7.59,-22.8 -31.08,-30.44 c -1.89,-0.61 -4.16,-0.83 -6.22,-1.01 l -11.39,-2.2 a 3.46,3.33 42.7 0 0 -1.48,0.03 c -5.56,1.37 -12.19,1.76 -13.62,-5.34 q -1.82,-9.04 -3.09,-13.36 c -2.65,-9.03 -8.37,-16.6 -16.15,-22.17 q -16.25,-11.64 -36.95,-9.3 -6.92,0.78 -10.34,2.64 -4.73,2.57 -6.78,3.29 c -6.54,2.3 -9.94,-2.21 -11.83,-8.11 -2.28,-7.1 -5.92,-16.299996 -11.3,-22.469996 q -19.49,-22.34 -49.95,-19.93 c -10.3,0.82 -17.58,2.97 -25.23,7.64 -4.82,2.95 -9.4,5.93 -14.91,2.19 q -0.12,-5.71 -2.08,-11.27 c -8.4,-23.89 -29.8,-41.25 -55.3,-42.02 -12.47,-0.38 -24.87,1.95 -36.07,8.22 -7.72,4.32 -14.48,11.14 -19.65,18.72 q -2.8,4.09 -4.65,5.19 -5.54,3.27 -11.08,-1.4 c -9.49,-7.98 -17.38,-13.63 -28.15,-16.92 -15.07,-4.61 -32.59,-1.56 -45.86,6.51 -11.54,7.02 -18.9,17.01 -23.52,29.23 -2.8,7.41 -6.22,17.34 -15.85,11.35 -3.97,-2.48 -7.08,-4.76 -11.22,-6.61 q -11.49,-5.15 -24.35,-4 -9.7,0.88 -15.64,3.25 -18.69,7.46 -29.8,26.189996 -0.97,1.64 -5.79,11.14 -3.31,6.54 -10.52,7.24 a 4.11,3.66 44.8 0 1 -1.11,-0.06 q -8.78,-1.8 -16.48,-0.66 -23.59,3.52 -35.53,24.34 c -4.86,8.48 -6.97,20.01 -4.69,30.18 q 0.68,3.03 1.18,6.12 c 1.25,7.76 -4.05,12.15 -11.17,12.89 -3.61,0.38 -8.06,0.28 -11.89,0.94 q -23.229998,3.97 -38.639998,22.37 z m 336.399998,134.47 q 3.79,3.49 7.43,6.86 c 19,17.64 26.11,43.92 29.22,68.77 0.94,7.56 2.84,13.5 5.8,19.94 0.97,2.12 1.62,4.65 2.45,6.97 a 0.41,0.41 0 0 1 -0.67,0.43 q -13.75,-13.13 -31.9,-17.85 -0.08,-0.02 -15.99,-4.07 c -21.55,-5.48 -35.48,-20.48 -48.67,-38.39 q -5.49,-7.44 -16.1,-15.8 c -6.57,-5.18 -18.33,-11.66 -24.19,-15.27 q -20.13,-12.38 -29.17,-34.12 -1.93,-4.66 -3.85,-10.52 a 0.91,0.9 68.6 0 0 -1.23,-0.54 q -6.42,2.87 -13.16,3.97 a 0.59,0.59 0 0 0 -0.47,0.76 q 4.37,14.8 10.48,27.82 0.75,1.6 0.99,2.81 a 1.75,1.74 77.3 0 1 -1.29,2.05 q -16.92,4.14 -33.54,1.17 -18.21,-3.43 -31.76,-15.93 -3.9,-3.59 -6.42,-7.4 a 0.83,0.83 0 0 0 -1.11,-0.27 q -7.04,4.05 -14.09,6.16 a 0.91,0.91 0 0 0 -0.42,1.47 c 7.38,8.43 15.31,17.02 24.65,22.77 11.5,8.1 25.22,11.39 39.1,11.31 8.53,-0.06 17.73,-1.04 25.01,-0.39 q 17.32,1.54 33.78,8.86 7.38,3.29 13.04,8.38 8.49,7.64 12.23,12.5 9.77,12.71 12.93,16.83 16.85,21.95 42.33,31.71 9.5,3.65 21.55,7.75 c 19.56,6.66 34.53,18.69 39.96,39.27 q 5.43,20.54 -0.8,40.92 -0.74,2.42 -2.03,6.8 a 0.41,0.41 0 0 0 0.37,0.53 q 10.63,0.6 21.21,-0.36 18.27,-1.31 36.16,-5.63 a 0.87,0.86 84.4 0 0 0.67,-0.82 q 0.5,-16.58 -1.37,-34.03 -0.87,-8.1 -2.83,-14.36 -2.98,-9.55 -5.05,-13.84 -10.15,-20.96 -13.53,-29.46 c -4.42,-11.1 -6.95,-21.88 -6.26,-33.54 0.48,-8.25 3.72,-16.16 7.88,-23.39 14.43,-20.2 37.98,-22.23 60.74,-23.97 q 12.96,-1 26.97,-5.59 c 5.34,-1.75 10.9,-4.72 15.14,-7.56 q 18.11,-12.12 30.77,-29.6 a 0.55,0.56 28.8 0 0 -0.24,-0.84 l -17.36,-7.01 a 2.15,2.16 22.3 0 0 -2.79,1.17 q -3.26,7.8 -9.41,14.15 c -7.96,8.23 -19.59,12.74 -31.03,15.32 q -9.49,2.13 -18.03,2.39 c -6.86,0.21 -11.92,0.74 -19.74,1.42 -16.91,1.46 -32.85,6.64 -45.4,19.62 q -4.32,4.92 -7.31,11.35 a 0.53,0.54 49.6 0 1 -1,-0.08 c -5.85,-20.54 -6.15,-41.44 2.12,-61.31 q 3.47,-8.35 7.56,-14.77 a 0.6,0.6 0 0 0 -0.64,-0.9 q -18.04,4.41 -34.79,1.06 a 1.95,1.95 0 0 0 -2.27,1.43 q -5.67,22.21 -4.02,45.48 0.2,2.8 -0.65,5.05 a 0.73,0.73 0 0 1 -1.36,0.01 q -2.25,-5.94 -6.41,-11.74 -2.2,-3.07 -9.8,-9.03 -2.02,-1.59 -10.38,-8.97 -15.07,-13.33 -20.43,-31.27 c -1.39,-4.66 -3.23,-9.73 -4.93,-12.77 a 1.12,1.12 0 0 0 -1.38,-0.5 l -13.95,5.45 a 1.28,1.27 71.4 0 0 -0.76,1.54 q 2.2,7.53 5.76,15.83 11.33,26.43 33.68,43.81 z m -57.15,-58.74 c -5.23,0.02 -10.55,0.31 -16.22,-0.54 q -8.02,-1.19 -15.53,-3.97 a 0.98,0.99 26.3 0 0 -1.18,0.41 q -8.06,13.19 -20.39,21.23 a 2.17,2.16 65.9 0 0 -0.9,2.38 c 4.55,16.56 17.22,31.01 31.57,40.02 q 10.75,6.75 16.51,10.22 3,1.81 5.44,1.43 17.05,-2.67 27.56,-16.66 a 1.67,1.67 0 0 0 -0.04,-2.05 q -1.94,-2.35 -2,-2.44 -4.31,-5.57 -11.12,-18.37 -4.49,-8.45 -11.07,-28.71 -0.6,-1.85 -1.67,-2.64 a 1.64,1.64 0 0 0 -0.96,-0.31 z m 133.1,55.06 q 14.25,-6.13 25.81,-8.99 c 11.25,-2.78 22.94,-3.53 35.51,-4.41 13.12,-0.91 26.04,-3.64 36.09,-12.51 q 1.98,-1.75 4.49,-6.54 c 2.35,-4.47 3.85,-7.24 -0.18,-10.74 a 2.14,2.13 56.2 0 0 -2.07,-0.42 q -7.25,2.36 -16.78,3.27 c -20.64,1.95 -39.31,-5.17 -55.26,-17.52 a 1.22,1.22 0 0 0 -1.54,0.03 q -2.9,2.42 -5.26,6.25 -8.23,13.43 -18.26,35.5 c -1.8,3.96 -3.97,11 -3.23,15.7 a 0.5,0.49 73.9 0 0 0.68,0.38 z m -78.59,-56.18 c -1.78,11.87 7.13,21.6 17.09,27.65 a 1.2,1.2 0 0 0 1.78,-0.73 l 3.52,-13.96 a 0.62,0.62 0 0 0 -0.39,-0.73 q -11.26,-4.16 -21.33,-12.48 a 0.41,0.41 0 0 0 -0.67,0.25 z m -151.25,49.12 a 0.68,0.67 82.9 0 0 0.65,-0.84 l -3.82,-15.05 a 2.12,2.1 89.3 0 0 -1.56,-1.53 q -10.16,-2.4 -18.16,-6.08 a 2.4,2.38 36.2 0 0 -2.59,0.39 l -7.87,7.1 a 0.71,0.71 0 0 0 -0.09,0.96 c 8.15,10.45 20.5,15 33.44,15.05 z m 172.89,81.53 c -1.38,-13.05 -4.18,-26.85 -10.36,-37.87 -4.81,-8.61 -11.87,-16.28 -19.21,-22.96 q -0.18,-0.16 -0.93,-0.95 -1.64,-1.73 -3.51,0.26 -12.35,13.18 -28.21,19.41 a 0.67,0.67 0 0 0 -0.28,1.04 q 9.08,11.36 17.9,20.3 c 7.06,7.16 15.82,12.79 24.7,15.35 q 16.41,4.71 19.62,5.65 a 0.22,0.22 0 0 0 0.28,-0.23 z m 203.04,-24.01 q -2.83,-0.98 -5.09,-1.42 c -9.56,-1.83 -18.45,-7.05 -26.49,-12.74 -3.08,-2.17 -4.27,-3.85 -7.48,-7.35 -2.12,-2.32 -3.78,-2.69 -6.68,-1.11 q -3.18,1.73 -8.24,3.19 -12.34,3.54 -26.93,4.74 -2.66,0.22 -7,1.02 -2.47,0.45 -7.06,0.71 -4.83,0.27 -10.9,2.37 c -14.99,5.18 -26.79,18.84 -25.98,35.24 q 0.64,12.91 5.65,24.18 3.02,6.79 7.18,14.81 c 4.52,8.71 9.17,20.33 11.31,31.33 q 2.09,10.78 2.23,13.61 0.8,16.2 0.64,27.61 -0.02,1.07 0.64,1.83 a 2.69,2.72 58.2 0 0 3.1,0.71 q 29.05,-12.23 55.14,-28.19 9.66,-5.91 28.88,-18.83 c 3.06,-2.07 4.1,-3.37 7.05,-6.21 q 1.65,-1.6 1.11,-3.42 -2.54,-8.56 -0.76,-17.44 0.54,-2.67 4.6,-11.29 a 2.24,2 83.4 0 1 0.41,-0.58 l 5.2,-5.16 a 2.01,2.01 0 0 0 -0.16,-3 q -0.39,-0.31 -2.58,-2.04 -7.95,-6.31 -7.57,-16.64 0.38,-10 4.39,-16.58 c 1.65,-2.73 3.16,-4.08 5.89,-6.11 a 1.85,1.85 0 0 0 -0.5,-3.24 z m -373.28,-5.27 q -5.75,5.17 -8.25,12.81 -2.68,8.18 1.63,15.22 1.21,1.98 6.48,6.82 3.45,3.17 6.56,6.66 7.99,8.98 9.31,21.06 c 0.6,5.5 -5.85,6.08 -7.98,11.04 -1.35,3.14 2.76,5.6 5.34,4.95 12.48,-3.15 13,-15.01 10.23,-25.23 -1.91,-7.04 -8.23,-15.54 -12.93,-20.31 q -8.23,-8.35 -8.29,-8.44 a 4.83,0.79 51.6 0 0 -0.41,-0.54 q -2.95,-3.86 -0.74,-10.33 c 4.1,-12.02 16.63,-4.04 15.83,4.99 q -0.05,0.63 -1.62,4.21 a 1.39,1.42 49.3 0 0 -0.08,0.92 q 0.57,2.31 2.54,2.68 a 1.32,1.31 32.5 0 0 1.02,-0.22 c 6.93,-4.9 7.46,-13.7 2.5,-20.01 q -4.25,-5.41 -8.41,-7.81 -1.16,-1.06 -3.03,-1.06 a 1.98,2.07 32.7 0 0 -0.99,0.24 q -3.18,1.7 -4.38,1.99 -0.68,0.17 -1.13,-0.38 a 0.73,0.72 59 0 0 -0.83,-0.21 z m 33.9,1.58 c 0.72,2.17 1.58,3.86 2.04,6.3 1.82,9.56 0.93,22.14 -8.44,27.71 q -1.85,1.1 -3.21,1.94 a 1.32,1.32 0 0 0 -0.25,2.05 c 3.58,3.64 5.82,6.04 7.54,10.78 q 2.96,8.14 2,16.9 c -0.34,3.03 -1.68,6.43 -2.19,8.88 a 1.65,1.66 38 0 0 0.12,1 q 1.2,2.62 2.77,4.04 16.7,15.07 37.16,29.1 15.1,10.36 19.56,12.64 c 3.42,1.75 6.05,2.14 9.51,4.35 23.08,14.68 48.93,24.45 76.24,26.97 a 1.64,1.65 15.7 0 0 1.64,-0.93 c 7.02,-14.56 9.83,-34.89 1.99,-49.23 q -5.16,-9.43 -14.7,-15.31 c -11.39,-7.03 -23.96,-10.47 -36.37,-15.39 q -20.94,-8.32 -36.16,-22.96 -3.75,-3.61 -10.13,-11.49 c -7.87,-9.71 -12.98,-16.25 -19.99,-22.83 q -11.65,-10.92 -28.72,-14.97 a 0.35,0.35 0 0 0 -0.41,0.45 z m 347.01,38.66 q 2.56,-1.5 3.39,-3.23 a 0.98,1 37.9 0 0 -0.12,-1.05 q -5.22,-6.51 0.5,-12.79 2.96,-3.25 7,-2.2 c 5.46,1.42 6.92,10.14 5.18,14.38 q -0.94,2.27 -6.05,6.6 -5.46,4.61 -11.56,12.56 -7.29,9.51 -8.72,20.56 -1.51,11.73 9.01,16.66 4.76,2.23 7.62,-1.97 a 2.26,2.26 0 0 0 -0.28,-2.89 q -1.42,-1.39 -4.81,-4.23 c -3.58,-3 -2.91,-7.16 -1.64,-11.19 q 3.53,-11.21 12.23,-19.03 c 5.98,-5.37 14.14,-10.72 14.11,-19.07 q -0.04,-9.37 -6.47,-17.72 -3.33,-4.33 -7.15,-4.96 -5.75,-0.94 -10.63,2.81 -8.76,6.73 -8.81,16.91 c -0.03,4.9 2.28,7.8 6.3,9.88 a 0.94,0.94 0 0 0 0.9,-0.03 z m -369.94,-21.8 -1.79,-3.01 a 0.49,0.49 0 0 0 -0.67,-0.17 l -0.14,0.08 a 2.19,2.53 59.2 0 0 -1.05,3.18 l 0.05,0.09 a 2.19,2.53 59.2 0 0 3.29,0.58 l 0.14,-0.08 a 0.49,0.49 0 0 0 0.17,-0.67 z m 380.96,12.33 -0.87,-2.59 a 0.47,0.47 0 0 0 -0.6,-0.3 l -0.16,0.05 a 1.84,3.1 71.4 0 0 -2.35,2.74 1.84,3.1 71.4 0 0 3.52,0.75 l 0.16,-0.05 a 0.47,0.47 0 0 0 0.3,-0.6 z m -403.92,30.94 q -2.45,10.7 7.56,14.95 a 0.58,0.59 14.4 0 0 0.81,-0.48 l 0.71,-7.48 a 1.21,1.14 32.1 0 0 -0.19,-0.73 l -4.46,-6.77 q 0.07,-1.13 -0.92,-1.86 a 1.08,1.06 56.2 0 0 -0.9,-0.19 q -2.31,0.52 -2.61,2.56 z m 84.27,67.24 q -1.11,-1.04 -1.62,-1.42 -15.57,-11.23 -21.42,-16.34 -15.56,-13.59 -25.62,-23.75 a 1.97,1.98 52.8 0 0 -2.4,-0.32 l -4.63,2.67 a 1.84,1.85 64.8 0 0 -0.81,2.23 c 3.11,8.46 7.57,18.64 12.57,28.64 q 2.94,5.89 5.07,11.29 a 2.9,2.92 80.6 0 0 2.59,1.84 q 18.37,0.75 36.06,-4.01 a 0.49,0.49 0 0 0 0.21,-0.83 z m 249.44,6.19 a 0.55,0.55 0 0 0 0.3,0.83 q 4.18,1.27 10.17,1.75 c 7.18,0.58 15.6,0.81 22.82,-0.49 q 3.16,-0.57 5.39,-1.83 a 4.15,4.28 6.2 0 0 1.06,-0.88 q 2.43,-2.86 4.55,-7.02 8.1,-15.91 11.46,-21.9 a 1.33,1.32 29.7 0 0 -0.5,-1.8 l -5.79,-3.34 a 1.42,1.42 0 0 0 -1.63,0.15 q -20.51,17.36 -47.36,34.08 -0.27,0.17 -0.47,0.45 z m 30.73,13.99 q -2.22,0.27 -6.38,0.84 -19.86,2.71 -39.82,-2.7 -2.52,-0.69 -4.42,0.33 c -41.73,22.45 -90.24,30.02 -137.01,22.99 q -20.41,-3.07 -36.77,-9.77 -16.2,-6.64 -37.19,-19.95 -2.09,-1.32 -4.79,-0.84 -23.05,4.14 -45.79,3.9 a 0.78,0.77 79.1 0 0 -0.72,1.07 q 1.21,2.96 2.99,4.98 11.67,13.23 25.86,24.87 c 12.52,10.26 25.37,19.61 40.11,26.8 25.34,12.37 52.47,20.24 81.24,21.31 39.2,1.45 79.01,-6.94 111.92,-27.2 q 30.06,-18.51 51.16,-45.95 a 0.42,0.43 15.1 0 0 -0.39,-0.68 z"
     id="path116" />
  <path
     fill="#507c26"
     d="m 491.24605,75.095704 q -0.15,10.83 -4.28,20.35 a 0.48,0.48 0 0 0 0.51,0.67 c 13.4,-2.08 26.54,5.219996 34.02,15.819996 3.69,5.22 5.22,11.71 5.68,18.02 a 0.67,0.67 0 0 0 0.87,0.58 q 23.29,-7.55 41.27,8.13 c 6.69,5.83 11.33,13.69 11.91,22.64 q 0.39,5.91 0.34,6.51 c -1,13.48 -8.5,22.85 -21.56,26.8 q -12.74,3.85 -25.73,-2.23 a 1.06,1.07 15.8 0 0 -1.51,0.85 q -0.61,5.52 -3.33,12.37 -2.73,6.86 -6.66,10.91 c -11.7,12.06 -27.43,17.63 -43.62,11.67 q -7.06,-2.59 -12.25,-7.85 a 1.13,1.12 37.1 0 0 -1.78,0.24 c -8.03,14.65 -24.83,21.17 -40.77,17.77 -7,-1.49 -15.83,-6.73 -17.63,-14.34 a 3.39,3.39 0 0 1 0.84,-3.11 c 2.29,-2.42 3.88,-3.4 7.5,-4.23 q 7.68,-1.76 12.13,-6.57 c 9.37,-10.11 13.42,-23.72 14.01,-37.66 a 0.74,0.74 0 0 1 0.85,-0.7 c 8.86,1.33 19.63,2.23 27.97,-1.9 13.26,-6.56 22.34,-16.75 22.99,-32.01 0.6,-13.94 -4.9,-24.92 -17.3,-31.52 q -9.45,-5.04 -20.55,-2.91 -3.07,0.59 -5.53,2.37 a 0.79,0.78 65.2 0 0 -0.3,0.83 q 2.07,8.18 -1.48,15.5 -5.91,12.19 -18.79,15.42 c -5.16,1.29 -10.07,1.87 -15.11,0.49 a 0.36,0.36 0 0 0 -0.45,0.38 c 1.16,13.04 -8.64,29.53 -20.43,34.69 -8.78,3.84 -24.23,5.46 -32.46,-1.08 a 0.8,0.8 0 0 0 -1.29,0.57 q -0.56,7.62 -4.58,14.13 -11.84,19.24 -32.81,24.99 c -16.9,4.64 -34.33,3.47 -48.38,-7.55 q -7.56,-5.93 -12.53,-12.79 a 1.27,1.27 0 0 0 -1.78,-0.28 q -14.84,11 -33.35,6.23 -13.08,-3.36 -16.81,-16.28 a 0.67,0.66 58.9 0 0 -1.12,-0.28 q -0.4,0.42 -0.6,1.07 c -2.78,8.94 -1.77,18.2 1.1,26.8 q 4.77,14.3 19.7,20.14 a 1.85,1.87 21.1 0 1 1.05,2.4 q -4.83,12.62 -17.68,16.34 -8.8,2.55 -16.97,1.24 c -6.79,-1.09 -13.23,-3.04 -18.51,-7.79 a 1.65,1.65 0 0 0 -2.54,0.4 q -0.26,0.44 -4.53,8.12 c -5.89,10.58 -15.62,18.73 -27.74,19.92 -15.49,1.53 -28.42,-0.85 -37.83,-14.24 -3.29,-4.68 -4.54,-9.76 -6.28,-15.77 a 1.23,1.22 60.4 0 0 -2.01,-0.56 c -2,1.85 -3.1,4.8 -4.65,6.44 q -6.53,6.87 -15.4,11.1 -6.63,3.16 -15.139998,2.14 -13.6,-1.62 -19.83,-12.74 -1.92,-3.43 -1.59,-7.86 0.72,-9.7 2.86,-18.35 c 0.94,-3.82 -4.32,-3.98 -6.52,-2.78 q -0.54,0.28 -0.89,0.04 -0.32,-0.22 -0.58,-0.76 15.41,-18.4 38.639998,-22.37 c 3.83,-0.66 8.28,-0.56 11.89,-0.94 7.12,-0.74 12.42,-5.13 11.17,-12.89 q -0.5,-3.09 -1.18,-6.12 c -2.28,-10.17 -0.17,-21.7 4.69,-30.18 q 11.94,-20.82 35.53,-24.34 7.7,-1.14 16.48,0.66 a 4.11,3.66 44.8 0 0 1.11,0.06 q 7.21,-0.7 10.52,-7.24 4.82,-9.5 5.79,-11.14 11.11,-18.729996 29.8,-26.189996 5.94,-2.37 15.64,-3.25 12.86,-1.15 24.35,4 c 4.14,1.85 7.25,4.13 11.22,6.61 9.63,5.99 13.05,-3.94 15.85,-11.35 4.62,-12.22 11.98,-22.21 23.52,-29.23 13.27,-8.07 30.79,-11.12 45.86,-6.51 10.77,3.29 18.66,8.94 28.15,16.92 q 5.54,4.67 11.08,1.4 1.85,-1.1 4.65,-5.19 c 5.17,-7.58 11.93,-14.4 19.65,-18.72 11.2,-6.27 23.6,-8.6 36.07,-8.22 25.5,0.77 46.9,18.13 55.3,42.02 q 1.96,5.56 2.08,11.27 z m -203.14,27.129996 c -12.55,-2.999996 -27.62,-1.93 -36.8,8.16 a 1.11,1.11 0 0 1 -1.61,0.03 c -6.34,-6.46 -14.9,-11.249996 -23.89,-11.359996 -6.02,-0.07 -13.97,0.78 -19.48,3.959996 -8.82,5.08 -15.67,13.56 -19.44,22.84 q -2.79,6.88 -2.23,14.73 c 0.22,3.11 2.23,5.15 5.11,3.1 q 3.96,-2.83 10.99,-8.67 c 5.27,-4.37 16.01,-10.53 23.96,-10.82 10.94,-0.4 18.48,5.79 26.07,13.32 a 1.03,1.02 41.5 0 0 1.53,-0.09 c 4.07,-5.17 9.41,-12.57 14.76,-15.94 q 10.68,-6.72 22.31,-2.42 c 2.64,0.97 6.21,3.06 8.31,3.67 9.56,2.8 10.57,-9.02 11.29,-15.09 0.74,-6.22 3.03,-11.149996 7.48,-15.449996 q 6.26,-6.04 10.4,-7.72 c 4.55,-1.85 14.82,-4.93 12.87,-9.18 -1.99,-4.33 -9,-6.99 -13.54,-7.51 q -15.79,-1.8 -26.01,10.92 c -5.15,6.4 -8.06,14.72 -10.28,22.469996 a 1.5,1.5 0 0 1 -1.8,1.05 z"
     id="path117" />
  <path
     fill="#38661a"
     d="m 704.26605,162.1857 c 0,12.34 -0.49,21.69 -7.23,31.1 q -3.09,4.31 -9.29,9.18 c -8.79,6.89 -18.55,8.6 -29.65,7.16 -4.19,-0.54 -8.06,-2.7 -11.78,-4.69 a 0.79,0.79 0 0 0 -1.16,0.77 q 0.47,5.03 0.39,9.32 c -0.45,26.63 -23.23,42.18 -48.09,40.24 -12.3,-0.96 -21.91,-5.87 -30.41,-14.22 q -3.73,-3.67 -5.93,-5.1 a 2.33,2.32 41.5 0 0 -2.77,0.16 q -7.25,6.03 -16.46,10.94 c -17.98,9.59 -39.08,9.54 -57.8,1.83 q -4.29,-1.77 -8.46,-3.66 -0.85,-0.8 -1.54,-0.41 a 0.65,0.66 75 0 0 -0.34,0.57 q -0.08,3.63 -0.08,3.74 -0.08,7.88 -5.78,14.7 c -10.79,12.9 -25.82,21.08 -42.97,22.47 -20.8,1.68 -41.49,-6.11 -54.94,-22.46 q -4.59,-5.57 -8.41,-12.22 -0.64,-1.12 -2.31,-2.02 a 1.42,1.43 49.1 0 0 -1.18,-0.08 q -2.58,1.01 -4.51,2.79 c -10.38,9.58 -21.88,16.97 -36.18,18.33 -13.49,1.29 -27.14,-0.54 -38.69,-8.3 -4.63,-3.11 -8.3,-5.39 -11.91,-1.09 q -0.45,0.53 -1.94,5.48 c -3,9.97 -8.95,17.3 -17.4,23.74 q -12.64,9.62 -28.57,9.55 c -11.26,-0.05 -19.66,-3.51 -29.12,-9.05 -3.53,-2.06 -5.53,0.14 -7.65,3.12 q -8.03,11.29 -16.64,16.85 -16.77,10.82 -37.32,8.82 -3.5,-0.34 -12.19,-2.75 c -8.25,-4.16 -13.46,-9.69 -18.34,-16.94 a 1.26,1.28 65.3 0 0 -1.41,-0.51 c -16.02,4.7 -37.749998,3.8 -52.239998,-5.03 q -4.78,-2.91 -6.72,-3.78 -13.76,-14.24 -15.96,-31.49 -3.05,-23.98 12.1,-43.21 0.26,0.54 0.58,0.76 0.35,0.24 0.89,-0.04 c 2.2,-1.2 7.46,-1.04 6.52,2.78 q -2.14,8.65 -2.86,18.35 -0.33,4.43 1.59,7.86 6.23,11.12 19.83,12.74 8.509998,1.02 15.139998,-2.14 8.87,-4.23 15.4,-11.1 c 1.55,-1.64 2.65,-4.59 4.65,-6.44 a 1.23,1.22 60.4 0 1 2.01,0.56 c 1.74,6.01 2.99,11.09 6.28,15.77 9.41,13.39 22.34,15.77 37.83,14.24 12.12,-1.19 21.85,-9.34 27.74,-19.92 q 4.27,-7.68 4.53,-8.12 a 1.65,1.65 0 0 1 2.54,-0.4 c 5.28,4.75 11.72,6.7 18.51,7.79 q 8.17,1.31 16.97,-1.24 12.85,-3.72 17.68,-16.34 a 1.85,1.87 21.1 0 0 -1.05,-2.4 q -14.93,-5.84 -19.7,-20.14 c -2.87,-8.6 -3.88,-17.86 -1.1,-26.8 q 0.2,-0.65 0.6,-1.07 a 0.67,0.66 58.9 0 1 1.12,0.28 q 3.73,12.92 16.81,16.28 18.51,4.77 33.35,-6.23 a 1.27,1.27 0 0 1 1.78,0.28 q 4.97,6.86 12.53,12.79 c 14.05,11.02 31.48,12.19 48.38,7.55 q 20.97,-5.75 32.81,-24.99 4.02,-6.51 4.58,-14.13 a 0.8,0.8 0 0 1 1.29,-0.57 c 8.23,6.54 23.68,4.92 32.46,1.08 11.79,-5.16 21.59,-21.65 20.43,-34.69 a 0.36,0.36 0 0 1 0.45,-0.38 c 5.04,1.38 9.95,0.8 15.11,-0.49 q 12.88,-3.23 18.79,-15.42 3.55,-7.32 1.48,-15.5 a 0.79,0.78 65.2 0 1 0.3,-0.83 q 2.46,-1.78 5.53,-2.37 11.1,-2.13 20.55,2.91 c 12.4,6.6 17.9,17.58 17.3,31.52 -0.65,15.26 -9.73,25.45 -22.99,32.01 -8.34,4.13 -19.11,3.23 -27.97,1.9 a 0.74,0.74 0 0 0 -0.85,0.7 c -0.59,13.94 -4.64,27.55 -14.01,37.66 q -4.45,4.81 -12.13,6.57 c -3.62,0.83 -5.21,1.81 -7.5,4.23 a 3.39,3.39 0 0 0 -0.84,3.11 c 1.8,7.61 10.63,12.85 17.63,14.34 15.94,3.4 32.74,-3.12 40.77,-17.77 a 1.13,1.12 37.1 0 1 1.78,-0.24 q 5.19,5.26 12.25,7.85 c 16.19,5.96 31.92,0.39 43.62,-11.67 q 3.93,-4.05 6.66,-10.91 2.72,-6.85 3.33,-12.37 a 1.06,1.07 15.8 0 1 1.51,-0.85 q 12.99,6.08 25.73,2.23 c 13.06,-3.95 20.56,-13.32 21.56,-26.8 q 0.05,-0.6 -0.34,-6.51 c -0.58,-8.95 -5.22,-16.81 -11.91,-22.64 q -17.98,-15.68 -41.27,-8.13 a 0.67,0.67 0 0 1 -0.87,-0.58 c -0.46,-6.31 -1.99,-12.8 -5.68,-18.02 -7.48,-10.6 -20.62,-17.899996 -34.02,-15.819996 a 0.48,0.48 0 0 1 -0.51,-0.67 q 4.13,-9.52 4.28,-20.35 c 5.51,3.74 10.09,0.76 14.91,-2.19 7.65,-4.67 14.93,-6.82 25.23,-7.64 q 30.46,-2.41 49.95,19.93 c 5.38,6.17 9.02,15.369996 11.3,22.469996 1.89,5.9 5.29,10.41 11.83,8.11 q 2.05,-0.72 6.78,-3.29 3.42,-1.86 10.34,-2.64 20.7,-2.34 36.95,9.3 c 7.78,5.57 13.5,13.14 16.15,22.17 q 1.27,4.32 3.09,13.36 c 1.43,7.1 8.06,6.71 13.62,5.34 a 3.46,3.33 42.7 0 1 1.48,-0.03 z"
     id="path118" />
  <path
     fill="#81a242"
     d="m 288.10605,102.2257 a 1.5,1.5 0 0 0 1.8,-1.05 c 2.22,-7.749996 5.13,-16.069996 10.28,-22.469996 q 10.22,-12.72 26.01,-10.92 c 4.54,0.52 11.55,3.18 13.54,7.51 1.95,4.25 -8.32,7.33 -12.87,9.18 q -4.14,1.68 -10.4,7.72 c -4.45,4.3 -6.74,9.229996 -7.48,15.449996 -0.72,6.07 -1.73,17.89 -11.29,15.09 -2.1,-0.61 -5.67,-2.7 -8.31,-3.67 q -11.63,-4.3 -22.31,2.42 c -5.35,3.37 -10.69,10.77 -14.76,15.94 a 1.03,1.02 41.5 0 1 -1.53,0.09 c -7.59,-7.53 -15.13,-13.72 -26.07,-13.32 -7.95,0.29 -18.69,6.45 -23.96,10.82 q -7.03,5.84 -10.99,8.67 c -2.88,2.05 -4.89,0.01 -5.11,-3.1 q -0.56,-7.85 2.23,-14.73 c 3.77,-9.28 10.62,-17.76 19.44,-22.84 5.51,-3.179996 13.46,-4.029996 19.48,-3.959996 8.99,0.11 17.55,4.899996 23.89,11.359996 a 1.11,1.11 0 0 0 1.61,-0.03 c 9.18,-10.09 24.25,-11.159996 36.8,-8.16 z"
     id="path119" />
  <path
     fill="#2a560f"
     d="m 475.62605,245.2157 q 4.17,1.89 8.46,3.66 c 18.72,7.71 39.82,7.76 57.8,-1.83 q 9.21,-4.91 16.46,-10.94 a 2.33,2.32 41.5 0 1 2.77,-0.16 q 2.2,1.43 5.93,5.1 c 8.5,8.35 18.11,13.26 30.41,14.22 24.86,1.94 47.64,-13.61 48.09,-40.24 q 0.08,-4.29 -0.39,-9.32 a 0.79,0.79 0 0 1 1.16,-0.77 c 3.72,1.99 7.59,4.15 11.78,4.69 11.1,1.44 20.86,-0.27 29.65,-7.16 q 6.2,-4.87 9.29,-9.18 c 6.74,-9.41 7.23,-18.76 7.23,-31.1 2.06,0.18 4.33,0.4 6.22,1.01 q 23.49,7.64 31.08,30.44 c 2.37,7.12 2.64,16.13 1.75,23.72 -1.27,10.83 6.55,9.51 13.84,12.42 23.23,9.24 35.73,29.48 32.91,54.63 -1.75,15.5 -11.15,29.73 -24.35,37.81 q -7.23,4.42 -15.9,7.76 a 2.36,2.37 86.5 0 0 -1.45,1.63 c -0.87,3.35 -1.28,7.36 -2.65,10.87 -5.88,15.17 -19.33,28.15 -35.23,30.94 -16.56,2.89 -33.68,-3.58 -45.84,-15.78 -1.65,-1.66 -4.3,-9.68 -8.28,-5.78 q -8.89,8.74 -12.76,12.48 -9.3,8.99 -20.94,11.76 c -13.35,3.17 -25.92,1.98 -38.52,-2.97 -6.27,-2.47 -11.4,-4.17 -15.65,-8.98 a 0.81,0.8 50.7 0 1 0.11,-1.17 c 12.3,-9.46 23.87,-21.02 32.48,-34.64 a 2.67,2.68 16.9 0 1 2.31,-1.24 q 11.65,0.2 23.26,-2.18 3.93,-0.8 7.92,-2.3 a 2.72,2.76 50.2 0 1 2.37,0.2 c 12.01,7.08 26.24,13.34 40.17,13.09 16.55,-0.29 38.5,-7.25 46.03,-23.51 2.06,-4.45 3.74,-19.08 -5.88,-16.11 q -0.92,0.29 -3.47,2.63 -10.8,9.94 -22.68,13.65 -4.7,1.47 -12.97,1.73 -23.35,0.74 -38.21,-16.69 -1.61,-1.9 -4.31,0.05 c -12.85,9.29 -30.24,10.84 -45.24,7.55 -10.48,-2.29 -21.87,-8.07 -27.36,-17.7 q -3.27,-5.75 -6.61,-9.61 c -3.19,-3.7 -6.18,-2.28 -9.79,0.61 -4.53,3.61 -10.26,4.95 -16.52,5.97 q -13.99,2.26 -27.43,-2.87 -10.33,-3.94 -17.96,-13.29 -6.27,-7.68 -9.14,-18.6 -0.68,-2.58 0.05,-4.5 z"
     id="path120" />
  <path
     fill="#67370c"
     d="m 440.74605,370.8357 c 6.56,5.81 8.74,12.25 10.38,20.5 -4.16,7.23 -7.4,15.14 -7.88,23.39 -0.69,11.66 1.84,22.44 6.26,33.54 q 3.38,8.5 13.53,29.46 2.07,4.29 5.05,13.84 1.96,6.26 2.83,14.36 1.87,17.45 1.37,34.03 a 0.87,0.86 84.4 0 1 -0.67,0.82 q -17.89,4.32 -36.16,5.63 -0.69,-3.39 -0.63,-4.79 0.26,-5.92 1.74,-27.11 c 0.42,-5.99 0.33,-11.34 -0.66,-16.72 q -0.76,-4.13 -0.88,-5.27 a 0.61,0.62 24.6 0 1 1.12,-0.42 c 7.54,11.04 12.58,23.85 18.28,37.12 a 0.28,0.28 0 0 0 0.54,-0.12 c -0.35,-7.73 -1,-15.28 -2.48,-23.55 q -1.39,-7.74 -1.93,-10.61 c -2.18,-11.54 -7.57,-21.34 -13.8,-33.11 q -3.91,-7.38 -5.25,-13.04 -2.83,-11.9 -8.23,-38.75 -4.16,-20.68 -13.98,-35.8 -1.16,-1.78 -3.04,-2.27 c -3.59,-0.93 -6.59,-1.29 -9.53,-3.05 q -7.04,-4.21 -10.57,-10.25 a 1.78,1.77 87.4 0 0 -0.74,-0.68 l -15.63,-7.48 q -22.35,-17.38 -33.68,-43.81 -3.56,-8.3 -5.76,-15.83 a 1.28,1.27 71.4 0 1 0.76,-1.54 l 13.95,-5.45 a 1.12,1.12 0 0 1 1.38,0.5 c 1.7,3.04 3.54,8.11 4.93,12.77 q 5.36,17.94 20.43,31.27 8.36,7.38 10.38,8.97 7.6,5.96 9.8,9.03 4.16,5.8 6.41,11.74 a 0.73,0.73 0 0 0 1.36,-0.01 q 0.85,-2.25 0.65,-5.05 -1.65,-23.27 4.02,-45.48 a 1.95,1.95 0 0 1 2.27,-1.43 q 16.75,3.35 34.79,-1.06 a 0.6,0.6 0 0 1 0.64,0.9 q -4.09,6.42 -7.56,14.77 c -8.27,19.87 -7.97,40.77 -2.12,61.31 a 0.53,0.54 49.6 0 0 1,0.08 q 2.99,-6.43 7.31,-11.35 z"
     id="path121" />
  <path
     fill="#2a560f"
     d="m 313.59605,292.0757 q 1.07,0.79 1.67,2.64 6.58,20.26 11.07,28.71 6.81,12.8 11.12,18.37 0.06,0.09 2,2.44 a 1.67,1.67 0 0 1 0.04,2.05 q -10.51,13.99 -27.56,16.66 -2.44,0.38 -5.44,-1.43 -5.76,-3.47 -16.51,-10.22 c -14.35,-9.01 -27.02,-23.46 -31.57,-40.02 a 2.17,2.16 65.9 0 1 0.9,-2.38 q 12.33,-8.04 20.39,-21.23 a 0.98,0.99 26.3 0 1 1.18,-0.41 q 7.51,2.78 15.53,3.97 c 5.67,0.85 10.99,0.56 16.22,0.54 a 1.64,1.64 0 0 1 0.96,0.31 z"
     id="path122" />
  <path
     fill="#2a560f"
     d="m 445.73605,346.8257 a 0.5,0.49 73.9 0 1 -0.68,-0.38 c -0.74,-4.7 1.43,-11.74 3.23,-15.7 q 10.03,-22.07 18.26,-35.5 2.36,-3.83 5.26,-6.25 a 1.22,1.22 0 0 1 1.54,-0.03 c 15.95,12.35 34.62,19.47 55.26,17.52 q 9.53,-0.91 16.78,-3.27 a 2.14,2.13 56.2 0 1 2.07,0.42 c 4.03,3.5 2.53,6.27 0.18,10.74 q -2.51,4.79 -4.49,6.54 c -10.05,8.87 -22.97,11.6 -36.09,12.51 -12.57,0.88 -24.26,1.63 -35.51,4.41 q -11.56,2.86 -25.81,8.99 z"
     id="path123" />
  <path
     fill="#2a560f"
     d="m 115.95605,316.9957 q -6.83,2.82 -7.49,10.87 -0.32,3.84 1.12,5.86 c 2.92,4.12 12.84,6.23 17.34,6.68 a 4.36,4.37 71.7 0 1 2.84,1.43 q 2.24,2.49 14.01,15.55 c 5.74,6.37 12.41,11.11 20.47,17.73 a 0.96,0.96 0 0 1 -0.08,1.55 q -5.96,3.98 -12.64,6.58 c -12.15,4.73 -25.65,0.88 -33.34,-9.79 q -2.21,-3.08 -4.87,-7.27 -1.94,-3.05 -5.94,-1.85 c -14.6,4.38 -28.3,9.04 -43.529998,6.13 -13.84,-2.66 -27.04,-11.6 -33.5,-24.99 -5.61,-11.66 -5.5,-25.73 -1.26,-37.74 q 0.73,-2.08 3.87,-7.26 3,-4.93 4.29,-9.74 1.94,0.87 6.72,3.78 c 14.49,8.83 36.219998,9.73 52.239998,5.03 a 1.26,1.28 65.3 0 1 1.41,0.51 c 4.88,7.25 10.09,12.78 18.34,16.94 z"
     id="path124" />
  <path
     fill="#2a560f"
     d="m 367.14605,290.6457 a 0.41,0.41 0 0 1 0.67,-0.25 q 10.07,8.32 21.33,12.48 a 0.62,0.62 0 0 1 0.39,0.73 l -3.52,13.96 a 1.2,1.2 0 0 1 -1.78,0.73 c -9.96,-6.05 -18.87,-15.78 -17.09,-27.65 z"
     id="path125" />
  <path
     fill="#2a560f"
     d="m 215.89605,339.7657 c -12.94,-0.05 -25.29,-4.6 -33.44,-15.05 a 0.71,0.71 0 0 1 0.09,-0.96 l 7.87,-7.1 a 2.4,2.38 36.2 0 1 2.59,-0.39 q 8,3.68 18.16,6.08 a 2.12,2.1 89.3 0 1 1.56,1.53 l 3.82,15.05 a 0.68,0.67 82.9 0 1 -0.65,0.84 z"
     id="path126" />
  <path
     fill="#7e4711"
     d="m 451.12605,391.3357 c -1.64,-8.25 -3.82,-14.69 -10.38,-20.5 12.55,-12.98 28.49,-18.16 45.4,-19.62 7.82,-0.68 12.88,-1.21 19.74,-1.42 q 8.54,-0.26 18.03,-2.39 c 11.44,-2.58 23.07,-7.09 31.03,-15.32 q 6.15,-6.35 9.41,-14.15 a 2.15,2.16 22.3 0 1 2.79,-1.17 l 17.36,7.01 a 0.55,0.56 28.8 0 1 0.24,0.84 q -12.66,17.48 -30.77,29.6 c -4.24,2.84 -9.8,5.81 -15.14,7.56 q -14.01,4.59 -26.97,5.59 c -22.76,1.74 -46.31,3.77 -60.74,23.97 z"
     id="path127" />
  <path
     fill="#7e4711"
     d="m 369.78605,350.5057 15.63,7.48 a 1.78,1.77 87.4 0 1 0.74,0.68 q 3.53,6.04 10.57,10.25 c 2.94,1.76 5.94,2.12 9.53,3.05 q 1.88,0.49 3.04,2.27 9.82,15.12 13.98,35.8 5.4,26.85 8.23,38.75 1.34,5.66 5.25,13.04 c 6.23,11.77 11.62,21.57 13.8,33.11 q 0.54,2.87 1.93,10.61 c 1.48,8.27 2.13,15.82 2.48,23.55 a 0.28,0.28 0 0 1 -0.54,0.12 c -5.7,-13.27 -10.74,-26.08 -18.28,-37.12 a 0.61,0.62 24.6 0 0 -1.12,0.42 q 0.12,1.14 0.88,5.27 c 0.99,5.38 1.08,10.73 0.66,16.72 q -1.48,21.19 -1.74,27.11 -0.06,1.4 0.63,4.79 -10.58,0.96 -21.21,0.36 a 0.41,0.41 0 0 1 -0.37,-0.53 q 1.29,-4.38 2.03,-6.8 6.23,-20.38 0.8,-40.92 c -5.43,-20.58 -20.4,-32.61 -39.96,-39.27 q -12.05,-4.1 -21.55,-7.75 -25.48,-9.76 -42.33,-31.71 -3.16,-4.12 -12.93,-16.83 -3.74,-4.86 -12.23,-12.5 -5.66,-5.09 -13.04,-8.38 -16.46,-7.32 -33.78,-8.86 c -7.28,-0.65 -16.48,0.33 -25.01,0.39 -13.88,0.08 -27.6,-3.21 -39.1,-11.31 l 11.95,4.71 a 1.31,1.32 46.5 0 0 0.89,0.02 c 6.97,-2.32 12.39,-5.18 16.31,-11.53 q 16.62,2.97 33.54,-1.17 a 1.75,1.74 77.3 0 0 1.29,-2.05 q -0.24,-1.21 -0.99,-2.81 -6.11,-13.02 -10.48,-27.82 a 0.59,0.59 0 0 1 0.47,-0.76 q 6.74,-1.1 13.16,-3.97 a 0.91,0.9 68.6 0 1 1.23,0.54 q 1.92,5.86 3.85,10.52 9.04,21.74 29.17,34.12 c 5.86,3.61 17.62,10.09 24.19,15.27 q 10.61,8.36 16.1,15.8 c 13.19,17.91 27.12,32.91 48.67,38.39 q 15.91,4.05 15.99,4.07 18.15,4.72 31.9,17.85 a 0.41,0.41 0 0 0 0.67,-0.43 c -0.83,-2.32 -1.48,-4.85 -2.45,-6.97 -2.96,-6.44 -4.86,-12.38 -5.8,-19.94 -3.11,-24.85 -10.22,-51.13 -29.22,-68.77 q -3.64,-3.37 -7.43,-6.86 z"
     id="path128" />
  <path
     fill="#67370c"
     d="m 205.92605,355.4957 c -3.92,6.35 -9.34,9.21 -16.31,11.53 a 1.31,1.32 46.5 0 1 -0.89,-0.02 l -11.95,-4.71 c -9.34,-5.75 -17.27,-14.34 -24.65,-22.77 a 0.91,0.91 0 0 1 0.42,-1.47 q 7.05,-2.11 14.09,-6.16 a 0.83,0.83 0 0 1 1.11,0.27 q 2.52,3.81 6.42,7.4 13.55,12.5 31.76,15.93 z"
     id="path129" />
  <path
     fill="#090500"
     d="m 591.82605,397.2857 a 1.85,1.85 0 0 1 0.5,3.24 c -2.73,2.03 -4.24,3.38 -5.89,6.11 q -4.01,6.58 -4.39,16.58 -0.38,10.33 7.57,16.64 2.19,1.73 2.58,2.04 a 2.01,2.01 0 0 1 0.16,3 l -5.2,5.16 a 2.24,2 83.4 0 0 -0.41,0.58 q -4.06,8.62 -4.6,11.29 -1.78,8.88 0.76,17.44 0.54,1.82 -1.11,3.42 c -2.95,2.84 -3.99,4.14 -7.05,6.21 q -19.22,12.92 -28.88,18.83 -26.09,15.96 -55.14,28.19 a 2.69,2.72 58.2 0 1 -3.1,-0.71 q -0.66,-0.76 -0.64,-1.83 0.16,-11.41 -0.64,-27.61 -0.14,-2.83 -2.23,-13.61 c -2.14,-11 -6.79,-22.62 -11.31,-31.33 q -4.16,-8.02 -7.18,-14.81 -5.01,-11.27 -5.65,-24.18 c -0.81,-16.4 10.99,-30.06 25.98,-35.24 q 6.07,-2.1 10.9,-2.37 4.59,-0.26 7.06,-0.71 4.34,-0.8 7,-1.02 14.59,-1.2 26.93,-4.74 5.06,-1.46 8.24,-3.19 c 2.9,-1.58 4.56,-1.21 6.68,1.11 3.21,3.5 4.4,5.18 7.48,7.35 8.04,5.69 16.93,10.91 26.49,12.74 q 2.26,0.44 5.09,1.42 z m -0.07,45.69 q -1.89,-1.52 -2.83,-2.17 c -9,-6.2 -9.57,-18.34 -6.66,-28.01 q 2.54,-8.46 9.52,-13.45 a 0.59,0.58 32.7 0 0 -0.23,-1.05 q -24.63,-4.71 -41.18,-22.79 a 1.63,1.61 56.1 0 0 -1.89,-0.38 q -10.51,4.92 -21.87,6.7 -13.95,2.19 -29.24,3.76 c -22.31,2.28 -38.92,17.89 -35.67,41.82 1.7,12.48 6.9,22.88 12.75,34.39 q 6.56,12.92 10.01,26.26 c 3.79,14.66 4.1,29.63 4.08,46.11 a 0.7,0.71 3.2 0 0 0.62,0.7 q 0.36,0.04 0.83,-0.15 c 27.18,-10.74 54.47,-26.71 79.75,-43.99 q 6.15,-4.21 10.36,-8.11 1.7,-1.58 1.18,-3.83 -4.9,-21.04 10.5,-35.07 a 0.49,0.48 43.2 0 0 -0.03,-0.74 z"
     id="path131" />
  <path
     fill="#8b96a0"
     d="m 231.27605,390.4857 q 0.39,1.26 1.85,2.17 1.84,1.14 2.3,1.74 c 1.72,2.27 4.27,4.99 5.35,7.43 q 3.5,7.97 -2.55,14.84 a 2.36,2.24 7.1 0 1 -0.8,0.59 q -1.63,0.72 -2.77,-1.25 a 1.01,1 44.7 0 1 -0.01,-0.98 c 1.61,-2.93 2.42,-4.99 1.19,-8.43 q -1.86,-5.23 -7.23,-7.53 c -4.66,-2 -8.72,2.51 -10.1,6.94 -2.24,7.2 0.1,10.19 5.59,15.3 q 4.24,3.95 9.85,11.25 5.68,7.39 7.54,15.1 c 2.48,10.26 0.53,19.48 -10.67,22.27 a 1.76,1.75 47.2 0 1 -0.97,-0.04 q -1.75,-0.57 -2.78,-2.23 a 1.25,1.3 35.5 0 1 -0.15,-1 c 0.81,-3.13 4.59,-5.49 6.42,-7.1 2.44,-2.16 1.75,-7.34 1.02,-10.17 -2.5,-9.66 -7.13,-15.04 -14.4,-22.08 q -6.39,-6.21 -7.59,-8.32 c -4.69,-8.31 -1.06,-16.03 3.77,-23.42 a 1.36,6.87 56.3 0 1 2.44,-2.43 q 1.18,-0.95 -0.03,-1.12 l 2.37,-0.95 a 0.73,0.72 59 0 1 0.83,0.21 q 0.45,0.55 1.13,0.38 1.2,-0.29 4.38,-1.99 a 1.98,2.07 32.7 0 1 0.99,-0.24 q 1.87,0 3.03,1.06 z"
     id="path133" />
  <path
     fill="#f7dfb4"
     d="m 231.27605,390.4857 q 4.16,2.4 8.41,7.81 c 4.96,6.31 4.43,15.11 -2.5,20.01 a 1.32,1.31 32.5 0 1 -1.02,0.22 q -1.97,-0.37 -2.54,-2.68 a 1.39,1.42 49.3 0 1 0.08,-0.92 q 1.57,-3.58 1.62,-4.21 c 0.8,-9.03 -11.73,-17.01 -15.83,-4.99 q -2.21,6.47 0.74,10.33 a 4.83,0.79 51.6 0 1 0.41,0.54 q 0.06,0.09 8.29,8.44 c 4.7,4.77 11.02,13.27 12.93,20.31 2.77,10.22 2.25,22.08 -10.23,25.23 -2.58,0.65 -6.69,-1.81 -5.34,-4.95 2.13,-4.96 8.58,-5.54 7.98,-11.04 q -1.32,-12.08 -9.31,-21.06 -3.11,-3.49 -6.56,-6.66 -5.27,-4.84 -6.48,-6.82 -4.31,-7.04 -1.63,-15.22 2.5,-7.64 8.25,-12.81 1.21,0.17 0.03,1.12 a 1.36,6.87 56.3 0 0 -2.44,2.43 c -4.83,7.39 -8.46,15.11 -3.77,23.42 q 1.2,2.11 7.59,8.32 c 7.27,7.04 11.9,12.42 14.4,22.08 0.73,2.83 1.42,8.01 -1.02,10.17 -1.83,1.61 -5.61,3.97 -6.42,7.1 a 1.25,1.3 35.5 0 0 0.15,1 q 1.03,1.66 2.78,2.23 a 1.76,1.75 47.2 0 0 0.97,0.04 c 11.2,-2.79 13.15,-12.01 10.67,-22.27 q -1.86,-7.71 -7.54,-15.1 -5.61,-7.3 -9.85,-11.25 c -5.49,-5.11 -7.83,-8.1 -5.59,-15.3 1.38,-4.43 5.44,-8.94 10.1,-6.94 q 5.37,2.3 7.23,7.53 c 1.23,3.44 0.42,5.5 -1.19,8.43 a 1.01,1 44.7 0 0 0.01,0.98 q 1.14,1.97 2.77,1.25 a 2.36,2.24 7.1 0 0 0.8,-0.59 q 6.05,-6.87 2.55,-14.84 c -1.08,-2.44 -3.63,-5.16 -5.35,-7.43 q -0.46,-0.6 -2.3,-1.74 -1.46,-0.91 -1.85,-2.17 z"
     id="path134" />
  <path
     fill="#fffcf4"
     d="m 598.55605,432.2857 c -4.02,-2.08 -6.33,-4.98 -6.3,-9.88 q 0.05,-10.18 8.81,-16.91 4.88,-3.75 10.63,-2.81 3.82,0.63 7.15,4.96 6.43,8.35 6.47,17.72 c 0.03,8.35 -8.13,13.7 -14.11,19.07 q -8.7,7.82 -12.23,19.03 c -1.27,4.03 -1.94,8.19 1.64,11.19 q 3.39,2.84 4.81,4.23 a 2.26,2.26 0 0 1 0.28,2.89 q -2.86,4.2 -7.62,1.97 -10.52,-4.93 -9.01,-16.66 1.43,-11.05 8.72,-20.56 6.1,-7.95 11.56,-12.56 5.11,-4.33 6.05,-6.6 c 1.74,-4.24 0.28,-12.96 -5.18,-14.38 q -4.04,-1.05 -7,2.2 -5.72,6.28 -0.5,12.79 a 0.98,1 37.9 0 1 0.12,1.05 q -0.83,1.73 -3.39,3.23 a 0.94,0.94 0 0 1 -0.9,0.03 z m 1.38,-1.01 2.03,-1.83 a 0.83,0.83 0 0 0 0.09,-1.14 q -4.64,-5.73 -1.03,-11.63 c 2.24,-3.65 6.07,-5.96 10.21,-4.16 5.11,2.21 6.58,9.33 5.25,14.59 a 2.8,2.86 68.8 0 1 -0.38,0.84 q -2.06,3.06 -2.5,3.41 -9.96,7.93 -17.09,18.62 -5.49,8.25 -6.58,16.84 -1.5,11.79 8.81,16.36 3.54,1.57 6,-1.33 a 1.95,1.95 0 0 0 -0.14,-2.67 c -4.98,-4.74 -8.91,-5.7 -6.91,-14.05 2.47,-10.32 7.85,-16.86 15.75,-23.86 6.29,-5.56 12,-10 10.92,-18.39 q -1.37,-10.72 -9.23,-17.74 a 4.16,4.12 78.9 0 0 -0.78,-0.53 q -6.72,-3.33 -12.98,1.63 -7.2,5.71 -8.2,14.04 c -0.62,5.18 0.92,9.08 5.65,11.18 a 1.03,1.04 36.1 0 0 1.11,-0.18 z"
     id="path136" />
  <path
     fill="#8b96a0"
     d="m 599.93605,431.2757 a 1.03,1.04 36.1 0 1 -1.11,0.18 c -4.73,-2.1 -6.27,-6 -5.65,-11.18 q 1,-8.33 8.2,-14.04 6.26,-4.96 12.98,-1.63 a 4.16,4.12 78.9 0 1 0.78,0.53 q 7.86,7.02 9.23,17.74 c 1.08,8.39 -4.63,12.83 -10.92,18.39 -7.9,7 -13.28,13.54 -15.75,23.86 -2,8.35 1.93,9.31 6.91,14.05 a 1.95,1.95 0 0 1 0.14,2.67 q -2.46,2.9 -6,1.33 -10.31,-4.57 -8.81,-16.36 1.09,-8.59 6.58,-16.84 7.13,-10.69 17.09,-18.62 0.44,-0.35 2.5,-3.41 a 2.8,2.86 68.8 0 0 0.38,-0.84 c 1.33,-5.26 -0.14,-12.38 -5.25,-14.59 -4.14,-1.8 -7.97,0.51 -10.21,4.16 q -3.61,5.9 1.03,11.63 a 0.83,0.83 0 0 1 -0.09,1.14 z"
     id="path137" />
  <path
     fill="#dec08b"
     d="m 229.51605,410.4557 a 0.49,0.49 0 0 1 -0.17,0.67 l -0.14,0.08 a 2.19,2.53 59.2 0 1 -3.29,-0.58 l -0.05,-0.09 a 2.19,2.53 59.2 0 1 1.05,-3.18 l 0.14,-0.08 a 0.49,0.49 0 0 1 0.67,0.17 z"
     id="path138" />
  <path
     fill="#81a242"
     d="m 610.47605,422.7857 a 0.47,0.47 0 0 1 -0.3,0.6 l -0.16,0.05 a 1.84,3.1 71.4 0 1 -3.52,-0.75 1.84,3.1 71.4 0 1 2.35,-2.74 l 0.16,-0.05 a 0.47,0.47 0 0 1 0.6,0.3 z"
     id="path139" />
  <path
     fill="#8b96a0"
     d="m 210.98605,453.2157 q -0.86,1.04 0.85,3.18 1.33,1.67 2.7,3.92 a 1.58,1.58 0 0 1 0.23,0.89 l -0.24,5.47 a 0.9,0.91 14.2 0 1 -1.3,0.78 q -4.12,-2.02 -5.61,-6.57 -1.01,-3.11 -1.06,-7.16 0.3,-2.04 2.61,-2.56 a 1.08,1.06 56.2 0 1 0.9,0.19 q 0.99,0.73 0.92,1.86 z"
     id="path140" />
  <path
     fill="#fffcf4"
     d="m 210.98605,453.2157 4.46,6.77 a 1.21,1.14 32.1 0 1 0.19,0.73 l -0.71,7.48 a 0.58,0.59 14.4 0 1 -0.81,0.48 q -10.01,-4.25 -7.56,-14.95 0.05,4.05 1.06,7.16 1.49,4.55 5.61,6.57 a 0.9,0.91 14.2 0 0 1.3,-0.78 l 0.24,-5.47 a 1.58,1.58 0 0 0 -0.23,-0.89 q -1.37,-2.25 -2.7,-3.92 -1.71,-2.14 -0.85,-3.18 z"
     id="path141" />
  <path
     fill="#fffcf4"
     d="m 618.05605,483.5357 q -0.36,0.22 -0.64,0 -0.29,-0.21 -0.3,-0.73 l 0.08,-8.17 a 2.1,2.1 0 0 1 0.88,-1.69 q 3.63,-2.57 4.21,-7.13 a 1.29,1.29 0 0 1 2.44,-0.41 c 3.26,6.65 -1.03,14.47 -6.67,18.13 z m 0.13,-4.81 q 0.43,0.8 -0.04,1.79 a 0.7,0.7 0 0 0 1.02,0.88 c 2.18,-1.43 3.16,-3.32 4.29,-5.95 q 1.85,-4.3 0.86,-7.85 a 0.8,0.8 0 0 0 -1.49,-0.13 q -0.14,0.29 -0.07,1.14 a 1.33,1.29 62 0 1 -0.25,0.86 q -1.64,2.27 -2.74,3.27 -1.42,1.3 -1.55,2.71 -0.26,2.86 -0.03,3.28 z"
     id="path142" />
  <path
     fill="#8b96a0"
     d="m 618.18605,478.7257 q -0.23,-0.42 0.03,-3.28 0.13,-1.41 1.55,-2.71 1.1,-1 2.74,-3.27 a 1.33,1.29 62 0 0 0.25,-0.86 q -0.07,-0.85 0.07,-1.14 a 0.8,0.8 0 0 1 1.49,0.13 q 0.99,3.55 -0.86,7.85 c -1.13,2.63 -2.11,4.52 -4.29,5.95 a 0.7,0.7 0 0 1 -1.02,-0.88 q 0.47,-0.99 0.04,-1.79 z"
     id="path143" />
  <path
     fill="#f7dfb4"
     d="m 290.82605,520.9657 a 0.49,0.49 0 0 1 -0.21,0.83 q -17.69,4.76 -36.06,4.01 a 2.9,2.92 80.6 0 1 -2.59,-1.84 q -2.13,-5.4 -5.07,-11.29 c -5,-10 -9.46,-20.18 -12.57,-28.64 a 1.84,1.85 64.8 0 1 0.81,-2.23 l 4.63,-2.67 a 1.97,1.98 52.8 0 1 2.4,0.32 q 10.06,10.16 25.62,23.75 5.85,5.11 21.42,16.34 0.51,0.38 1.62,1.42 z"
     id="path144" />
  <path
     fill="#f7dfb4"
     d="m 540.26605,527.1557 q 0.2,-0.28 0.47,-0.45 26.85,-16.72 47.36,-34.08 a 1.42,1.42 0 0 1 1.63,-0.15 l 5.79,3.34 a 1.33,1.32 29.7 0 1 0.5,1.8 q -3.36,5.99 -11.46,21.9 -2.12,4.16 -4.55,7.02 a 4.15,4.28 6.2 0 1 -1.06,0.88 q -2.23,1.26 -5.39,1.83 c -7.22,1.3 -15.64,1.07 -22.82,0.49 q -5.99,-0.48 -10.17,-1.75 a 0.55,0.55 0 0 1 -0.3,-0.83 z"
     id="path145" />
  <path
     fill="#f7dfb4"
     d="m 570.99605,541.1457 a 0.42,0.43 15.1 0 1 0.39,0.68 q -21.1,27.44 -51.16,45.95 c -32.91,20.26 -72.72,28.65 -111.92,27.2 -28.77,-1.07 -55.9,-8.94 -81.24,-21.31 -14.74,-7.19 -27.59,-16.54 -40.11,-26.8 q -14.19,-11.64 -25.86,-24.87 -1.78,-2.02 -2.99,-4.98 a 0.78,0.77 79.1 0 1 0.72,-1.07 q 22.74,0.24 45.79,-3.9 2.7,-0.48 4.79,0.84 20.99,13.31 37.19,19.95 16.36,6.7 36.77,9.77 c 46.77,7.03 95.28,-0.54 137.01,-22.99 q 1.9,-1.02 4.42,-0.33 19.96,5.41 39.82,2.7 4.16,-0.57 6.38,-0.84 z m -2.8,2.13 q -0.56,-0.34 -1.07,-0.27 -17.83,2.44 -32.83,-0.28 a 2.12,2.11 22.1 0 0 -2.12,0.89 c -1.15,1.68 -2.53,2.72 -4.29,4.17 q -26.54,21.91 -56.19,30.88 -31.83,9.64 -69.39,8.28 c -5.59,-0.2 -10.05,-1.03 -15.76,-1.67 -31.1,-3.52 -62.19,-16.35 -88.29,-33.69 -3.91,-2.6 -7.38,-5.8 -11.35,-8.22 q -8.4,-5.1 -17.51,-4.29 a 1.22,1.21 19.6 0 0 -0.75,0.35 l -3.31,3.22 a 1.28,1.27 57.1 0 0 -0.29,1.38 q 0.15,0.58 2.23,2.74 7.18,7.47 12.84,12.88 1.88,1.8 3.59,3.13 3.44,2.66 3.62,2.93 a 2.53,2.62 86.4 0 0 0.95,0.81 q 2.7,1.38 5.17,4.19 a 3.93,4.05 85 0 0 0.97,0.79 q 0.89,0.52 8.98,6.56 12.69,9.48 28.73,16.77 17.13,7.79 35.05,12.71 3.83,1.05 5.56,1.38 3.06,0.58 5.53,1.48 a 3.26,3.01 53.6 0 0 1.04,0.2 c 3.68,0.07 7.66,1.49 11.85,1.8 q 4.39,0.32 10.15,0.93 4.12,0.43 10.16,0.61 43.13,1.26 83.59,-14.78 c 5.93,-2.36 10.25,-4.91 16.21,-7.83 9.78,-4.78 17.26,-10.55 27.78,-18.37 q 7.52,-5.6 14.88,-13.08 8.11,-8.25 14.44,-15.51 a 0.72,0.72 0 0 0 -0.17,-1.09 z"
     id="path146" />
  <path
     fill="#dec08b"
     d="m 568.19605,543.2757 a 0.72,0.72 0 0 1 0.17,1.09 q -6.33,7.26 -14.44,15.51 -7.36,7.48 -14.88,13.08 c -10.52,7.82 -18,13.59 -27.78,18.37 -5.96,2.92 -10.28,5.47 -16.21,7.83 q -40.46,16.04 -83.59,14.78 -6.04,-0.18 -10.16,-0.61 -5.76,-0.61 -10.15,-0.93 c -4.19,-0.31 -8.17,-1.73 -11.85,-1.8 a 3.26,3.01 53.6 0 1 -1.04,-0.2 q -2.47,-0.9 -5.53,-1.48 -1.73,-0.33 -5.56,-1.38 -17.92,-4.92 -35.05,-12.71 -16.04,-7.29 -28.73,-16.77 -8.09,-6.04 -8.98,-6.56 a 3.93,4.05 85 0 1 -0.97,-0.79 q -2.47,-2.81 -5.17,-4.19 a 2.53,2.62 86.4 0 1 -0.95,-0.81 q -0.18,-0.27 -3.62,-2.93 -1.71,-1.33 -3.59,-3.13 -5.66,-5.41 -12.84,-12.88 -2.08,-2.16 -2.23,-2.74 a 1.28,1.27 57.1 0 1 0.29,-1.38 l 3.31,-3.22 a 1.22,1.21 19.6 0 1 0.75,-0.35 q 9.11,-0.81 17.51,4.29 c 3.97,2.42 7.44,5.62 11.35,8.22 26.1,17.34 57.19,30.17 88.29,33.69 5.71,0.64 10.17,1.47 15.76,1.67 q 37.56,1.36 69.39,-8.28 29.65,-8.97 56.19,-30.88 c 1.76,-1.45 3.14,-2.49 4.29,-4.17 a 2.12,2.11 22.1 0 1 2.12,-0.89 q 15,2.72 32.83,0.28 0.51,-0.07 1.07,0.27 z"
     id="path147" />
  <path
     fill="#7e4711"
     d="m 389.23605,632.0157 q -9.38,5.41 -18.79,10.66 -3.51,1.96 -17.39,11.42 c -4.12,2.81 -7.73,6.37 -10.24,9.7 q -9.28,12.37 -16.67,28.32 -2.81,6.06 -5.93,18.55 -1.9,7.56 -2.15,13.16 l -9.4,-0.64 c -1.75,-15.62 -0.35,-32.12 6.36,-46.18 q 7.74,-16.22 19.11,-28.45 a 0.49,0.49 0 0 0 -0.35,-0.83 q -1.39,-0.02 -3.08,0.47 -6.83,2.02 -19.88,6.09 -8.25,2.57 -22.19,4.87 c -12.53,2.07 -23.92,4.86 -34.1,10.36 -15.41,8.32 -25.65,24.36 -29.42,41.1 q -0.29,1.3 -0.34,2.77 a 0.98,1.02 63.7 0 1 -0.21,0.58 q -0.58,0.77 -0.21,1.62 -8.91,0.86 -18.13,-0.22 1.53,-14.69 7.99,-27.65 c 10.97,-22 29.77,-34.57 53.37,-40.69 q 25.31,-6.57 32.01,-8.46 18.99,-5.37 27.52,-9.03 7.77,-3.34 15.77,-8.11 a 2.22,2.24 38.7 0 1 1.85,-0.21 q 21.85,7.2 44.5,10.8 z"
     id="path148" />
  <path
     fill="#7e4711"
     d="m 594.84605,716.7857 -23,-1.37 q -2.27,-14.42 -9.25,-25.81 -10.45,-17.06 -30.23,-23.75 2.78,-5.01 -1.01,-8.87 c -6.96,-7.09 -16.57,-13.05 -27.49,-16.49 q -2.16,-0.68 -14.61,-5.04 -2.06,-0.72 -7.57,-0.73 a 3.25,3.11 53.8 0 1 -0.96,-0.17 q -7.84,-2.71 -16.13,-2.91 c -3.99,-0.09 -10.26,1.51 -15.93,0.49 q 13.15,-1.67 25.96,-5.09 1.88,-0.5 3.63,0.42 7.26,3.86 24.69,11.02 7.55,3.11 19.54,6.42 c 16.81,4.64 35.09,11.65 48.38,22.72 q 5.32,4.44 10.99,11.77 12.51,16.2 12.99,37.39 z"
     id="path149" />
  <path
     fill="#67370c"
     d="m 532.36605,665.8557 c -11.72,-3.23 -24.96,-6.13 -35.22,-9.74 q -8.69,-3.06 -17.71,-6.06 c -10.94,-3.64 -19.6,-6.24 -29.83,-5.12 a 0.98,0.98 0 0 0 -0.74,1.47 c 0.86,1.45 5.06,3.58 8.8,5.92 10.86,6.76 19.58,17.76 24.59,29.68 q 1.74,4.13 3.99,11.69 1.84,6.17 2.44,12.05 0.85,8.22 0.39,16.72 -8.11,0.93 -17.69,0.38 -0.27,-1.21 3.73,-1.22 a 1.11,1.11 0 0 0 1.09,-1.26 c -0.92,-6.61 -1.44,-12.06 -3.24,-18.62 q -3.41,-12.44 -10.26,-24.17 -4.45,-7.61 -7.01,-10.21 c -4.69,-4.77 -17.47,-13.07 -22.7,-5.07 a 0.89,0.88 20.1 0 1 -0.85,0.39 l -2.23,-0.28 q -4.79,-5.99 -10.67,-10.64 c -17.27,-13.66 -46.17,3.75 -59.81,15.23 -9.59,8.07 -16.78,17.75 -21.99,28.92 q -6.22,13.33 -6.64,28.12 l -12.74,-0.21 q 0.25,-5.6 2.15,-13.16 3.12,-12.49 5.93,-18.55 7.39,-15.95 16.67,-28.32 c 2.51,-3.33 6.12,-6.89 10.24,-9.7 q 13.88,-9.46 17.39,-11.42 9.41,-5.25 18.79,-10.66 15.48,1.74 25.14,1.76 13.18,0.02 34.29,-1.64 c 5.67,1.02 11.94,-0.58 15.93,-0.49 q 8.29,0.2 16.13,2.91 a 3.25,3.11 53.8 0 0 0.96,0.17 q 5.51,0.01 7.57,0.73 12.45,4.36 14.61,5.04 c 10.92,3.44 20.53,9.4 27.49,16.49 q 3.79,3.86 1.01,8.87 z"
     id="path150" />
  <path
     fill="#143105"
     d="m 532.36605,665.8557 q 19.78,6.69 30.23,23.75 6.98,11.39 9.25,25.81 -6.02,-0.58 -12.62,-2.08 -2.19,-0.49 -3.21,-2.12 -4.93,-7.86 -7.72,-11.8 -9.15,-11.24 -21.98,-16.49 c -6.95,-2.84 -15.96,-4.26 -23.88,-5.65 q -2.67,-0.47 -4.24,-0.38 a 1.16,1.17 77.8 0 0 -1.03,1.59 q 4.82,12.31 7.55,23.46 c 0.49,6.49 0.54,16.14 -5.53,18.24 q -4.08,1.41 -10.11,2.28 0.46,-8.5 -0.39,-16.72 -0.6,-5.88 -2.44,-12.05 -2.25,-7.56 -3.99,-11.69 c -5.01,-11.92 -13.73,-22.92 -24.59,-29.68 -3.74,-2.34 -7.94,-4.47 -8.8,-5.92 a 0.98,0.98 0 0 1 0.74,-1.47 c 10.23,-1.12 18.89,1.48 29.83,5.12 q 9.02,3 17.71,6.06 c 10.26,3.61 23.5,6.51 35.22,9.74 z"
     id="path151" />
  <path
     fill="#143105"
     d="m 429.91605,662.4057 q 19.1,25.94 26.67,57.37 c 0.08,0.36 0.32,0.76 0.53,1.08 q 0.17,0.26 -0.01,0.48 -0.13,0.18 -0.47,0.16 -6.96,-1.25 -14.09,-1.76 -1.72,-0.12 -3.08,-0.93 -1.18,-0.7 -1.9,-2.51 -1.9,-4.73 -3.59,-9.37 l -10.05,-20.88 a 0.69,0.69 0 0 0 -1.26,0.03 q -4.28,10.2 -5.85,21.97 a 0.63,0.64 1.1 0 0 0.69,0.72 l 13.69,-1.38 -13.14,2.37 a 0.87,0.96 30.7 0 0 -0.29,0.09 q -9.69,4.46 -20.21,6.44 0.71,-6.63 1.64,-12.68 2.79,-18.18 14.47,-31.47 a 0.72,0.73 43.8 0 0 -0.02,-0.98 c -2.46,-2.56 -5.93,-5.04 -8.79,-6.64 q -3,-1.69 -6.48,0.74 c -8.36,5.87 -12.37,13.9 -14.84,24.25 q -3.29,13.81 -2.08,27.41 -8.2,0.39 -16.52,-1.97 a 0.65,0.65 0 0 1 -0.47,-0.64 q 0.06,-3.45 0.6,-6.68 0.18,-1.07 -0.62,-2.25 0.08,-0.01 0.24,-0.2 a 0.56,0.61 61.7 0 0 0.14,-0.4 q -0.11,-9.35 1.68,-18.24 a 0.61,0.61 0 0 0 -1.08,-0.49 q -7.39,9.79 -12.66,20.54 -2.02,6.92 -4.93,13.69 -1.34,3.12 -4.93,3.36 -7.19,0.5 -12.1,0.4 0.42,-14.79 6.64,-28.12 c 5.21,-11.17 12.4,-20.85 21.99,-28.92 13.64,-11.48 42.54,-28.89 59.81,-15.23 q 5.88,4.65 10.67,10.64 z"
     id="path152" />
  <path
     fill="#143105"
     d="m 308.66605,723.1857 q -8.87,-0.72 -16.23,-5.88 a 2.64,2.64 0 0 1 -1.11,-2.4 l 0.89,-9.44 a 0.59,0.59 0 0 0 -0.81,-0.6 q -7.22,2.94 -14.73,3.02 -11.17,0.12 -23.31,-6.52 -2.05,-1.13 -3.5,-2.37 a 0.37,0.36 49.2 0 1 0.04,-0.58 q 0.11,-0.07 0.27,-0.12 c 12.81,8.68 26.85,11.73 41.59,5.71 a 1.18,1.2 81.8 0 0 0.73,-0.96 q 1.58,-14.28 7.31,-27.37 a 0.54,0.54 0 0 0 -0.58,-0.75 c -9.82,1.62 -18.89,3.36 -28,6.03 -8.49,2.49 -16.63,10.09 -22.12,16.85 l -12.65,13.98 a 2.26,2.16 7 0 1 -0.63,0.47 q -5.4,2.58 -11.47,3.33 -0.37,-0.85 0.21,-1.62 a 0.98,1.02 63.7 0 0 0.21,-0.58 q 0.05,-1.47 0.34,-2.77 c 3.77,-16.74 14.01,-32.78 29.42,-41.1 10.18,-5.5 21.57,-8.29 34.1,-10.36 q 13.94,-2.3 22.19,-4.87 13.05,-4.07 19.88,-6.09 1.69,-0.49 3.08,-0.47 a 0.49,0.49 0 0 1 0.35,0.83 q -11.37,12.23 -19.11,28.45 c -6.71,14.06 -8.11,30.56 -6.36,46.18 z"
     id="path153" />
  <path
     fill="#7e4711"
     d="m 471.38605,722.8457 q -7.04,0.27 -14.75,-1.35 0.34,0.02 0.47,-0.16 0.18,-0.22 0.01,-0.48 c -0.21,-0.32 -0.45,-0.72 -0.53,-1.08 q -7.57,-31.43 -26.67,-57.37 l 2.23,0.28 a 0.89,0.88 20.1 0 0 0.85,-0.39 c 5.23,-8 18.01,0.3 22.7,5.07 q 2.56,2.6 7.01,10.21 6.85,11.73 10.26,24.17 c 1.8,6.56 2.32,12.01 3.24,18.62 a 1.11,1.11 0 0 1 -1.09,1.26 q -4,0.01 -3.73,1.22 z"
     id="path154" />
  <path
     fill="#67370c"
     d="m 397.55605,716.2857 q -7.76,1.05 -16.1,0.63 -1.21,-13.6 2.08,-27.41 c 2.47,-10.35 6.48,-18.38 14.84,-24.25 q 3.48,-2.43 6.48,-0.74 c 2.86,1.6 6.33,4.08 8.79,6.64 a 0.72,0.73 43.8 0 1 0.02,0.98 q -11.68,13.29 -14.47,31.47 -0.93,6.05 -1.64,12.68 z"
     id="path155" />
  <path
     fill="#438d9c"
     d="m 250.17605,698.2957 q -0.16,0.05 -0.27,0.12 a 0.37,0.36 49.2 0 0 -0.04,0.58 q 1.45,1.24 3.5,2.37 12.14,6.64 23.31,6.52 7.51,-0.08 14.73,-3.02 a 0.59,0.59 0 0 1 0.81,0.6 l -0.89,9.44 a 2.64,2.64 0 0 0 1.11,2.4 q 7.36,5.16 16.23,5.88 l 9.4,0.64 12.74,0.21 q 4.91,0.1 12.1,-0.4 3.59,-0.24 4.93,-3.36 2.91,-6.77 4.93,-13.69 l 11.68,-1.21 q 0.8,1.18 0.62,2.25 -0.54,3.23 -0.6,6.68 a 0.65,0.65 0 0 0 0.47,0.64 q 8.32,2.36 16.52,1.97 8.34,0.42 16.1,-0.63 10.52,-1.98 20.21,-6.44 a 0.87,0.96 30.7 0 1 0.29,-0.09 l 13.14,-2.37 q -0.3,-0.86 2.78,-0.46 1.69,4.64 3.59,9.37 0.72,1.81 1.9,2.51 1.36,0.81 3.08,0.93 7.13,0.51 14.09,1.76 7.71,1.62 14.75,1.35 9.58,0.55 17.69,-0.38 6.03,-0.87 10.11,-2.28 c 6.07,-2.1 6.02,-11.75 5.53,-18.24 q 16.37,2.87 32.35,0.5 c 3.8,-0.56 7.48,-1.82 11.23,-3.03 q 2.79,3.94 7.72,11.8 1.02,1.63 3.21,2.12 6.6,1.5 12.62,2.08 l 23,1.37 q 7.12,-0.13 14.07,-0.93 4.29,-0.5 4.04,-5.01 -0.19,-3.26 -0.37,-6.25 1.96,-1.37 3.7,-2.59 c 4.51,-3.18 8.22,-2.51 13.56,-0.64 q 9.32,3.28 12.46,4.27 18.39,5.83 38.13,2.74 a 1.14,1.1 61.9 0 1 0.96,0.31 c 2.61,2.57 -1.57,5.98 -3.86,7.35 q -15.23,9.08 -32.53,14.17 c -23.76,6.99 -51.37,5.91 -75.76,0.62 -5.44,-1.18 -12.51,-3.51 -17.1,-4.49 -3.12,-0.66 -5.85,-0.55 -9.14,0.96 q -9.9,4.56 -14.48,6.47 c -9.21,3.83 -18.93,6.12 -29.12,6.99 -24.66,2.1 -48.71,-0.33 -72.79,-6.36 a 7.97,7.98 43.6 0 0 -4.31,0.11 q -6.39,1.96 -13.56,3.95 c -27.97,7.75 -58.23,9.08 -87.34,6.02 q -12.11,-1.28 -21.4,-3.54 c -10.08,-2.45 -18.66,-6.85 -26.33,-13.12 q -1.79,-1.47 -4.79,-0.43 c -11.31,3.93 -18.32,6.06 -28.77,7.41 q -16.12,2.09 -36.24,0.18 -16.19,-1.53 -30.18,-7.67 -3.68,-1.61 -11.19,-6.93 c -2.2,-1.56 -4.14,-1.75 -6.6,-1.43 q -10.85,1.44 -17.29,1.78 -5.66,0.3 -14.86,-1.1 c -6.3,-0.96 -11.58,-3.8 -14.91,-8.77 a 2.99,2.37 51.8 0 1 0.01,-3.4 q 0.78,-0.8 2.75,-0.3 c 4.43,1.11 10.06,2.79 15.13,2.67 q 10.57,-0.25 20.31,-4.08 11.16,-4.38 12.75,-4.97 c 3.46,-1.27 5.87,-1.19 9.63,0.56 q 9.99,4.64 20.46,8.17 l -0.81,0.24 a 0.25,0.25 0 0 0 -0.01,0.48 q 2.37,0.8 4.5,1.93 3.64,1.95 12.66,3.21 9.22,1.08 18.13,0.22 6.07,-0.75 11.47,-3.33 a 2.26,2.16 7 0 0 0.63,-0.47 l 12.65,-13.98 z"
     id="path160" />
  <path
     fill="#090500"
     d="m 1384.0442,439.34216 a 0.21,0.2 84.4 0 0 -0.22,-0.19 h -0.01 a 0.16,0.16 0 0 0 -0.15,0.17 q 0.43,13.46 0.46,24.74 c 0.01,8.45 0.31,17.24 -9.98,18.8 -7.98,1.2 -18.76,1.38 -22.95,-6.42 -1.08,-2.02 -1.26,-6.4 -1.23,-8.92 q 0.25,-23.41 0.11,-43.55 -0.05,-7.11 -1.53,-9.05 c -2.8,-3.66 -7.81,-2.82 -11.36,-0.61 q -5.63,3.51 -5.65,11.76 -0.04,19.33 0.25,44.49 c 0.06,5.8 -1.76,11.17 -8.1,12.34 q -8.72,1.6 -17.26,-0.22 c -9.46,-2.01 -9.11,-8.63 -9.04,-17.71 q 0.45,-51.65 -0.33,-99.91 c -0.09,-5.87 -0.15,-11.13 4.96,-14.85 4.41,-3.22 12.78,-3.04 18.76,-2.63 9.52,0.65 12.24,7.28 12.2,15.79 q -0.04,10.58 -0.85,20.73 a 0.25,0.25 0 0 0 0.37,0.24 c 6.38,-3.51 12.66,-4.28 20.03,-3.93 18.59,0.87 29.79,15.81 30.55,33.66 q 0.34,8.2 0.7,12.14 a 0.13009612,0.13009612 0 0 0 0.26,0.01 q 0.52,-3.61 1.31,-8.64 c 1.28,-8.15 5.77,-17.05 11.65,-23.42 q 13.12,-14.22 33.86,-14.17 c 21.72,0.05 38.85,14.52 43.6,35.51 a 0.17,0.17 0 0 0 0.32,0.03 q 0.66,-1.56 1.46,-3.83 c 7.97,-22.66 28.01,-34.05 51.61,-31.3 21.54,2.51 35.62,22.14 37.23,42.91 q 0.26,3.35 -0.16,15.59 -0.46,13.24 -6.8,24.17 c -9.52,16.41 -26.01,23.96 -44.84,21.74 -19.78,-2.32 -35.44,-17.1 -38.57,-36.85 a 0.17007351,0.17007351 0 0 0 -0.34,-0.01 c -3.66,18.46 -15.99,32.07 -33.42,36.11 -25.39,5.89 -49.57,-8.78 -55.45,-34.31 q -0.63,-2.73 -1.45,-10.41 z m -60.81,-38.35 q 1.22,-19.95 1.01,-43.12 a 1.15,1.16 2.2 0 0 -1.05,-1.14 q -7.99,-0.74 -15.38,0.13 a 1.34,1.33 86.9 0 0 -1.18,1.33 v 115.52 a 0.89,0.9 0 0 0 0.89,0.9 h 14.33 a 1.61,1.6 89.8 0 0 1.6,-1.62 q -0.11,-16.09 -0.34,-34.7 -0.19,-14.77 0.48,-17.39 2.11,-8.28 9.9,-13.97 c 8.25,-6.02 21.94,-4.07 24.11,7.4 q 0.64,3.37 0.62,6.25 -0.26,36.34 -0.19,47.73 0.02,3.21 0.52,5.26 a 1.4,1.41 83.2 0 0 1.37,1.07 h 14.14 a 1.58,1.58 0 0 0 1.58,-1.56 q 0.37,-33.24 -0.26,-55.5 c -0.43,-15.12 -7.27,-27.63 -23.42,-28.85 -11.25,-0.85 -20.93,4.35 -27.9,12.59 a 0.47,0.47 0 0 1 -0.83,-0.33 z m 68.9,30.19 c -0.91,23.72 10.56,45.26 37.22,45.42 q 16.97,0.11 27.4,-11.05 c 8.05,-8.63 10.69,-19.97 11.13,-31.46 0.44,-11.49 -1.32,-23.01 -8.69,-32.23 q -9.54,-11.92 -26.47,-13.12 c -26.59,-1.87 -39.68,18.72 -40.59,42.44 z m 89.58,-0.68 c -1.26,23.68 9.87,45.35 36.49,45.91 q 16.95,0.36 27.53,-10.63 c 8.17,-8.5 10.97,-19.78 11.58,-31.25 0.61,-11.47 -0.97,-22.99 -8.2,-32.31 q -9.35,-12.05 -26.24,-13.49 c -26.53,-2.27 -39.9,18.1 -41.16,41.77 z"
     id="path161" />
  <path
     fill="#090500"
     d="m 1678.9042,412.24216 a 0.95,0.95 0 0 0 0.49,1.48 q 7.63,2.34 18.24,4.79 3.34,0.77 8.67,3.66 17.11,9.26 16.02,29.68 c -0.65,12.1 -6.92,20.52 -16.78,26.57 -13.68,8.39 -33.05,7.26 -47.58,1.3 q -3.56,-1.47 -6.76,-4.05 a 0.47,0.47 0 0 0 -0.74,0.22 c -2.03,6.29 -6.68,6.64 -13.21,7.28 q -7.29,0.72 -14.56,-1.26 c -2.74,-0.75 -5.21,-3.45 -6.89,-5.98 q -11.2,-16.87 -15.65,-23.65 -0.38,-0.59 -0.75,-0.79 a 0.22,0.23 11.4 0 0 -0.33,0.22 c 0.59,8 0.76,14.61 0.29,21.55 -0.33,4.74 -3.28,8.07 -7.85,8.93 -7.32,1.38 -21.43,2.41 -24.68,-6.34 q -0.88,-2.36 -0.79,-8.79 c 0.45,-35.49 -0.85,-69.96 -1.08,-101.5 q -0.01,-2 0.47,-6.31 c 1.42,-12.47 11.11,-12.01 20.84,-11.01 q 4.72,0.48 6.6,1.02 c 6.32,1.84 6.38,8.16 6.33,14.31 q -0.09,11.83 -0.11,37.83 a 0.33,0.33 0 0 0 0.59,0.21 q 6.04,-7.53 12.44,-13.78 c 3.17,-3.08 6.51,-4.84 11.37,-5.34 q 9.05,-0.93 17.23,0.46 c 1.82,0.31 4.77,2.83 5.69,4.58 q 3.76,7.15 -2.14,13.29 -9.35,9.75 -23.78,22.39 a 0.48,0.48 0 0 0 -0.08,0.63 l 24.11,34.38 a 0.48,0.48 0 0 0 0.82,-0.05 c 2.35,-4.51 6.5,-10.82 11.36,-12.35 4.21,-1.31 7.69,0.93 11.31,3.52 4.75,3.39 14.59,6.07 20.48,3.18 a 1.27,1.27 0 0 0 0.29,-2.08 c -2.93,-2.62 -7.88,-2.75 -13.52,-3.78 q -4.93,-0.9 -11.88,-3.85 c -15.04,-6.39 -21.31,-20.87 -17.01,-36.43 4.31,-15.6 17.22,-24.28 33.22,-25.69 13.36,-1.17 27.12,1.59 36.56,10.91 7.87,7.78 2.83,16.67 -3.48,23.03 -5.85,5.91 -10.59,3.61 -16.57,-0.25 -3.83,-2.46 -11.21,-4.92 -15.56,-3.16 q -1.27,0.52 -1.64,1.02 z m -88.75,10.97 q -0.16,-1.26 0.01,-3.13 0.85,-9.17 0.87,-16.25 0.03,-8.87 0.03,-40.02 0,-3.13 -0.28,-5.79 a 0.98,0.98 0 0 0 -0.94,-0.88 l -15.03,-0.66 a 1.01,1.01 0 0 0 -1.05,1.02 l 0.64,114.89 a 2.05,2.05 0 0 0 1.89,2.03 q 5.67,0.46 12.57,-0.2 c 3.51,-0.33 2.81,-2.1 2.78,-5.11 q -0.09,-7.43 -0.6,-21.29 -0.03,-0.94 0.17,-4.68 c 0.12,-2.33 4.58,-5.84 6.15,-7.37 a 0.65,0.64 49.9 0 1 0.97,0.09 q 10.03,14.01 24.02,34.94 2.04,3.05 4,3.36 7.76,1.2 16.03,-0.02 a 1.05,1.05 0 0 0 0.73,-1.62 l -32.76,-49.49 a 0.45,0.46 50.3 0 1 0.06,-0.58 q 19.66,-19.21 27.39,-26.94 1.3,-1.3 1.51,-3.01 a 1.2,1.2 0 0 0 -1.14,-1.35 q -6.73,-0.27 -14.64,0.11 -3.19,0.15 -5.94,3.01 -13.19,13.7 -26.69,29.16 a 0.43,0.43 0 0 1 -0.75,-0.22 z m 114.2,-13.73 a 1.25,1.25 0 0 0 1.47,-0.09 q 4.58,-3.77 6.66,-8.82 a 1.71,1.72 32.5 0 0 -0.42,-1.92 c -10.44,-9.72 -24.22,-11.22 -37.63,-8.32 q -14.47,3.13 -19.2,15.85 c -2.97,7.99 -2.01,19.41 5.05,24.98 7.6,6.01 15.42,7.16 26.2,9.55 6.16,1.36 10.82,3.88 10.7,10.9 -0.11,6.88 -6.07,9.8 -12.33,10.26 q -14.17,1.02 -24.83,-7.8 a 1.07,1.07 0 0 0 -1.47,0.09 q -4.46,4.82 -6.32,10.01 a 2.37,2.37 0 0 0 0.74,2.62 c 10.06,8.17 23.36,10.07 36,8.38 q 11,-1.47 16.81,-6.71 c 6.75,-6.08 9.54,-14.41 8.04,-23.33 -2.65,-15.81 -17.42,-18.3 -30.72,-21.31 -5.4,-1.22 -11.82,-3.81 -12.26,-10.12 q -0.45,-6.48 4.88,-9.26 c 6.98,-3.65 16.9,-1.97 23.63,1.93 q 1.65,0.96 5,3.11 z"
     id="path162" />
  <path
     fill="#8e490b"
     d="m 1323.2342,400.99216 a 0.47,0.47 0 0 0 0.83,0.33 c 6.97,-8.24 16.65,-13.44 27.9,-12.59 16.15,1.22 22.99,13.73 23.42,28.85 q 0.63,22.26 0.26,55.5 a 1.58,1.58 0 0 1 -1.58,1.56 h -14.14 a 1.4,1.41 83.2 0 1 -1.37,-1.07 q -0.5,-2.05 -0.52,-5.26 -0.07,-11.39 0.19,-47.73 0.02,-2.88 -0.62,-6.25 c -2.17,-11.47 -15.86,-13.42 -24.11,-7.4 q -7.79,5.69 -9.9,13.97 -0.67,2.62 -0.48,17.39 0.23,18.61 0.34,34.7 a 1.61,1.6 89.8 0 1 -1.6,1.62 h -14.33 a 0.89,0.9 0 0 1 -0.89,-0.9 v -115.52 a 1.34,1.33 86.9 0 1 1.18,-1.33 q 7.39,-0.87 15.38,-0.13 a 1.15,1.16 2.2 0 1 1.05,1.14 q 0.21,23.17 -1.01,43.12 z"
     id="path163" />
  <path
     fill="#8e490b"
     d="m 1590.1542,423.21216 a 0.43,0.43 0 0 0 0.75,0.22 q 13.5,-15.46 26.69,-29.16 2.75,-2.86 5.94,-3.01 7.91,-0.38 14.64,-0.11 a 1.2,1.2 0 0 1 1.14,1.35 q -0.21,1.71 -1.51,3.01 -7.73,7.73 -27.39,26.94 a 0.45,0.46 50.3 0 0 -0.06,0.58 l 32.76,49.49 a 1.05,1.05 0 0 1 -0.73,1.62 q -8.27,1.22 -16.03,0.02 -1.96,-0.31 -4,-3.36 -13.99,-20.93 -24.02,-34.94 a 0.65,0.64 49.9 0 0 -0.97,-0.09 c -1.57,1.53 -6.03,5.04 -6.15,7.37 q -0.2,3.74 -0.17,4.68 0.51,13.86 0.6,21.29 c 0.03,3.01 0.73,4.78 -2.78,5.11 q -6.9,0.66 -12.57,0.2 a 2.05,2.05 0 0 1 -1.89,-2.03 l -0.64,-114.89 a 1.01,1.01 0 0 1 1.05,-1.02 l 15.03,0.66 a 0.98,0.98 0 0 1 0.94,0.88 q 0.28,2.66 0.28,5.79 0,31.15 -0.03,40.02 -0.02,7.08 -0.87,16.25 -0.17,1.87 -0.01,3.13 z"
     id="path164" />
  <path
     fill="#090500"
     d="m 900.96418,479.94216 a 0.14,0.14 0 0 0 -0.16,-0.21 q -9.3,2.62 -20.2,0.69 c -32.03,-5.67 -39.08,-43.23 -31.78,-69.46 5.04,-18.09 18.28,-30.32 37.24,-31.12 q 10.77,-0.46 19.48,5.27 a 1.67,1.67 0 0 0 1.85,-0.01 c 5.47,-3.74 14,-3.57 19.82,-2.62 q 9.45,1.55 9.35,11.86 -0.38,37.51 -0.24,75.21 c 0.06,17.11 -6.63,32.85 -21.93,41.24 q -8.46,4.64 -20.54,5.26 -18.9,0.96 -35.51,-8.17 c -4.84,-2.66 -8.68,-5.6 -6.83,-11.91 1.97,-6.72 6.29,-16.74 13.5,-18.07 3.16,-0.59 7.58,1.94 12.08,3.88 6.59,2.85 19.07,5.61 23.87,-1.84 z m 9.93,-18.85 c 0.8,6.84 0.69,15.73 -2.38,21.53 -5.32,10.06 -14.06,10.91 -24.27,9.92 -5.68,-0.56 -11.74,-3.39 -17.39,-6.24 a 0.8,0.82 31.6 0 0 -1.02,0.25 q -3.39,4.7 -5.68,9.81 -1.07,2.39 0.75,3.42 17.48,9.88 37.17,7.19 8.18,-1.12 13.15,-4.13 c 9.43,-5.7 14.76,-14.16 16.27,-24.92 q 1.04,-7.46 0.97,-12.86 -0.41,-32.14 -0.14,-66.75 0.03,-3.59 -0.17,-6.63 a 0.96,0.96 0 0 0 -0.96,-0.9 h -13.17 a 1.63,1.62 2.7 0 0 -1.62,1.47 l -0.72,7.53 a 0.5,0.5 0 0 1 -0.89,0.27 q -10.15,-12.42 -24.78,-11.56 c -27.45,1.61 -33.72,30.54 -30.53,52.73 1.73,12.05 8.09,24.23 19.71,29.15 11.14,4.72 25.15,3.6 33.34,-6.39 0.76,-0.93 1.25,-2.39 1.76,-3.05 a 0.33,0.33 0 0 1 0.6,0.16 z"
     id="path165" />
  <path
     fill="#090500"
     d="m 1085.4442,402.40216 c -0.96,-2.89 -2.26,-5.97 -2.45,-8.82 q -0.7,-10.38 10.35,-11.36 9.35,-0.83 16.05,0.38 c 5.58,1 6.83,5.54 8.46,10.9 q 6.38,20.99 10.99,37.89 a 0.22,0.22 0 0 0 0.42,0 q 5.31,-18.25 10.16,-34.25 c 1.98,-6.56 2.83,-13.03 11.02,-14.33 5.03,-0.79 18.6,-2.24 22.67,2.36 3.63,4.09 1.95,10.34 -0.23,14.7 a 0.15,0.16 27.4 0 0 0.06,0.21 h 0.01 a 0.16,0.16 0 0 0 0.21,-0.05 q 10.53,-17.23 30.42,-19.73 c 18.41,-2.32 35.78,5.8 43.93,22.76 3.98,8.28 4.91,17.21 4.73,26.76 -0.15,7.89 -2.08,15.84 -11.39,16.08 q -4.84,0.12 -5.62,0.19 a 0.14080128,0.14080128 0 0 0 -0.03,0.28 c 6.22,2.02 10.73,9.91 12.3,16.04 1.41,5.53 -1.89,8.95 -6.2,12.12 q -11.58,8.53 -25.12,9.86 -15.29,1.5 -26.74,-4.13 c -16.51,-8.11 -25.08,-26.17 -25.26,-44.47 q -0.04,-4.75 0.31,-10.01 a 0.06184658,0.06184658 0 0 0 -0.12,-0.03 c -1.21,2.11 -1.56,4.82 -2.41,7.36 q -5.39,16.04 -12.44,37.62 c -1.57,4.8 -3.78,10.55 -9.5,11.58 q -5.75,1.04 -11.89,0.83 -9.12,-0.31 -12.02,-1.35 c -5.12,-1.84 -5.52,-5.79 -7.44,-10.6 q -0.08,-0.2 -13.87,-40.78 -1.18,-3.48 -4.81,-14.71 a 0.26,0.26 0 0 0 -0.32,-0.17 h -0.02 a 0.23,0.22 74.4 0 0 -0.15,0.28 q 1.71,6.1 1.9,16.51 c 0.23,12.41 -2.58,24.33 -9.4,34.05 q -10.88,15.52 -29.13,18.05 c -26.8,3.72 -48.19,-12.31 -52.84,-38.79 q -2.87004,-16.32 1.8,-32.44 a 0.18,0.18 0 0 0 -0.24,-0.22 l -1.48,0.61 a 4.48,4.66 32.5 0 1 -1.32004,0.32 c -7.74,0.64 -20.19,0.69 -23.23,10.45 q -0.61,1.93 -0.54,11.94 0.11,18.13 0.15,36.25 c 0.02,7.22 -5.66,9.93 -12.02998,10.34 -9.58,0.61 -21.13,0.02 -21.29,-12.61 q -0.85,-68.56 -0.82,-75 0.05,-12.22 12.32,-13.16 8.66,-0.66 14.62998,0.93 a 3.04,2.81 67.8 0 1 0.9,0.42 l 2.76,1.91 a 0.97,0.98 48.6 0 0 1,0.06 q 10.66,-5.51 23.21,-3.64 11.05004,1.66 10.20004,12.81 -0.47,6.22 -1.58,11.02 a 0.17088007,0.17088007 0 0 0 0.32,0.12 c 7.25,-13.68 17.19,-22.38 32.83,-25.16 9.29,-1.66 19.32,-0.58 28.02,3.44 q 12.95,5.98 19.25,18.96 2.33,4.82 0.55,-0.58 z m -77.7,28.61 c -0.93,23.64 10.47,45.11 37.04,45.31 q 16.91,0.13 27.32,-10.99 c 8.04,-8.59 10.67,-19.89 11.12,-31.34 0.45,-11.45 -1.28,-22.92 -8.62,-32.12 q -9.49,-11.9 -26.36,-13.1 c -26.5,-1.9 -39.56,18.6 -40.5,42.24 z m 182.22,6.54 h 52 a 1.46,1.46 0 0 0 1.44,-1.22 c 3.07,-18.62 -3.03,-41.82 -24.36,-46.64 -14.22,-3.21 -29.09,0.66 -37.61,12.58 -8.81,12.34 -10.14,29.08 -7.47,43.7 2.43,13.28 11.25,25.26 24.46,28.77 13.84,3.68 29.48,0.84 40.55,-9.09 a 1.96,1.97 57.5 0 0 0.5,-2.23 q -1.74,-4.12 -4.28,-7.48 -1.91,-2.53 -4.16,-0.41 c -7.96,7.51 -21.18,9.81 -30.49,3.89 -7.7,-4.9 -9.87,-12.47 -11.25,-21.08 a 0.69,0.68 85.6 0 1 0.67,-0.79 z m -222.06004,-35.81 a 0.37,0.37 0 0 1 -0.64998,-0.17 l -1.67,-9.07 a 2.13,2.14 84.8 0 0 -2.1,-1.75 h -12.29 a 1.2,1.2 0 0 0 -1.2,1.2 v 80.51 a 1.89,1.89 0 0 0 1.89,1.89 h 14.2 a 1.17,1.17 0 0 0 1.17,-1.19 q -0.35,-27.32 -0.06,-46.84 0.06,-3.57 2.25998,-7.6 c 6.11,-11.14 14.81,-12.55 26.51,-12.95 a 0.83,0.82 1.5 0 0 0.8,-0.75 l 1.22,-12.86 a 1.49,1.5 7.2 0 0 -1.25,-1.62 c -9.8,-1.62 -19.94,0.56 -26.59,8.56 q -0.44,0.53 -2.24,2.64 z m 160.22004,55.46 -19.36,-65.53 a 0.97,0.96 81.4 0 0 -0.92,-0.69 h -15.93 a 0.89,0.9 84.7 0 0 -0.88,1.06 q 0.32,1.72 1.33,4.77 14.55,43.92 25.41,75.31 0.7,2.01 3.06,2.05 9.89,0.17 17.27,-0.25 a 2.25,2.24 7.5 0 0 2,-1.53 q 16.2,-48.36 26.34,-77.04 0.33,-0.94 0.76,-3.51 a 0.81,0.81 0 0 0 -0.8,-0.94 h -14.42 a 2.06,2.06 0 0 0 -1.96,1.43 q -8.56,26.29 -16.74,52.66 -2.1,6.77 -4.39,12.25 a 0.41,0.41 0 0 1 -0.77,-0.04 z m -39.04,-43.78 q 0.05,0.39 0.08,0.42 a 0.08,0.09 21.5 0 0 0.13,-0.06 q 0.05,-0.31 -0.03,-0.43 a 0.1,0.1 0 0 0 -0.18,0.07 z m 143.92,32.68 a 0.07,0.07 0 0 0 -0.05,-0.02 l -33.32,-0.09 a 0.5,0.51 73.1 0 0 -0.43,0.79 q 8.02,11.71 21.77,5.29 1.34,-0.63 7.8,-4.37 0.67,-0.39 4.33,-1.17 a 0.17,0.18 68.8 0 0 0.12,-0.26 z"
     id="path166" />
  <path
     fill="#8e490b"
     d="m 910.29418,460.93216 c -0.51,0.66 -1,2.12 -1.76,3.05 -8.19,9.99 -22.2,11.11 -33.34,6.39 -11.62,-4.92 -17.98,-17.1 -19.71,-29.15 -3.19,-22.19 3.08,-51.12 30.53,-52.73 q 14.63,-0.86 24.78,11.56 a 0.5,0.5 0 0 0 0.89,-0.27 l 0.72,-7.53 a 1.63,1.62 2.7 0 1 1.62,-1.47 h 13.17 a 0.96,0.96 0 0 1 0.96,0.9 q 0.2,3.04 0.17,6.63 -0.27,34.61 0.14,66.75 0.07,5.4 -0.97,12.86 c -1.51,10.76 -6.84,19.22 -16.27,24.92 q -4.97,3.01 -13.15,4.13 -19.69,2.69 -37.17,-7.19 -1.82,-1.03 -0.75,-3.42 2.29,-5.11 5.68,-9.81 a 0.8,0.82 31.6 0 1 1.02,-0.25 c 5.65,2.85 11.71,5.68 17.39,6.24 10.21,0.99 18.95,0.14 24.27,-9.92 3.07,-5.8 3.18,-14.69 2.38,-21.53 a 0.33,0.33 0 0 0 -0.6,-0.16 z m 0.95,-30.43 c -0.16,-12.55 -4.33,-28.28 -19.97,-28.08 -15.65,0.19 -19.43,16.02 -19.27,28.57 0.15,12.55 4.32,28.27 19.97,28.08 15.64,-0.19 19.42,-16.02 19.27,-28.57 z"
     id="path167" />
  <path
     fill="#8e490b"
     d="m 1007.7442,431.01216 c 0.94,-23.64 14,-44.14 40.5,-42.24 q 16.87,1.2 26.36,13.1 c 7.34,9.2 9.07,20.67 8.62,32.12 -0.45,11.45 -3.08,22.75 -11.12,31.34 q -10.41,11.12 -27.32,10.99 c -26.57,-0.2 -37.97,-21.67 -37.04,-45.31 z m 58.33,1.53 c 0.19,-13.16 -3.76,-29.77 -20.17,-29.99 -16.41,-0.23 -20.81,16.26 -20.99,29.43 -0.18,13.16 3.76,29.77 20.17,29.99 16.41,0.23 20.81,-16.26 20.99,-29.43 z"
     id="path168" />
  <path
     fill="#8e490b"
     d="m 1189.9642,437.55216 a 0.69,0.68 85.6 0 0 -0.67,0.79 c 1.38,8.61 3.55,16.18 11.25,21.08 9.31,5.92 22.53,3.62 30.49,-3.89 q 2.25,-2.12 4.16,0.41 2.54,3.36 4.28,7.48 a 1.96,1.97 57.5 0 1 -0.5,2.23 c -11.07,9.93 -26.71,12.77 -40.55,9.09 -13.21,-3.51 -22.03,-15.49 -24.46,-28.77 -2.67,-14.62 -1.34,-31.36 7.47,-43.7 8.52,-11.92 23.39,-15.79 37.61,-12.58 21.33,4.82 27.43,28.02 24.36,46.64 a 1.46,1.46 0 0 1 -1.44,1.22 z m 1.02,-12.01 36.46,-0.12 a 0.45,0.45 0 0 0 0.45,-0.46 v -0.27 a 23.1,18.64 89.8 0 0 -18.72,-23.03 h -0.08 a 23.1,18.64 89.8 0 0 -18.56,23.17 v 0.27 a 0.45,0.45 0 0 0 0.45,0.44 z"
     id="path169" />
  <path
     fill="#8e490b"
     d="m 1467.8842,434.09216 c -0.44,11.49 -3.08,22.83 -11.13,31.46 q -10.43,11.16 -27.4,11.05 c -26.66,-0.16 -38.13,-21.7 -37.22,-45.42 0.91,-23.72 14,-44.31 40.59,-42.44 q 16.93,1.2 26.47,13.12 c 7.37,9.22 9.13,20.74 8.69,32.23 z m -58.52,-2.04 c -0.21,13.15 3.69,29.76 20.09,30.03 16.41,0.26 20.84,-16.22 21.05,-29.37 0.21,-13.16 -3.69,-29.77 -20.09,-30.03 -16.4,-0.27 -20.84,16.21 -21.05,29.37 z"
     id="path170" />
  <path
     fill="#8e490b"
     d="m 1481.7142,430.50216 c 1.26,-23.67 14.63,-44.04 41.16,-41.77 q 16.89,1.44 26.24,13.49 c 7.23,9.32 8.81,20.84 8.2,32.31 -0.61,11.47 -3.41,22.75 -11.58,31.25 q -10.58,10.99 -27.53,10.63 c -26.62,-0.56 -37.75,-22.23 -36.49,-45.91 z m 58.44,2.07 c 0.14,-13.18 -3.85,-29.8 -20.28,-29.98 -16.43,-0.18 -20.79,16.34 -20.94,29.52 -0.14,13.18 3.85,29.8 20.28,29.98 16.43,0.18 20.79,-16.34 20.94,-29.52 z"
     id="path171" />
  <path
     fill="#8e490b"
     d="m 1704.3542,409.48216 q -3.35,-2.15 -5,-3.11 c -6.73,-3.9 -16.65,-5.58 -23.63,-1.93 q -5.33,2.78 -4.88,9.26 c 0.44,6.31 6.86,8.9 12.26,10.12 13.3,3.01 28.07,5.5 30.72,21.31 1.5,8.92 -1.29,17.25 -8.04,23.33 q -5.81,5.24 -16.81,6.71 c -12.64,1.69 -25.94,-0.21 -36,-8.38 a 2.37,2.37 0 0 1 -0.74,-2.62 q 1.86,-5.19 6.32,-10.01 a 1.07,1.07 0 0 1 1.47,-0.09 q 10.66,8.82 24.83,7.8 c 6.26,-0.46 12.22,-3.38 12.33,-10.26 0.12,-7.02 -4.54,-9.54 -10.7,-10.9 -10.78,-2.39 -18.6,-3.54 -26.2,-9.55 -7.06,-5.57 -8.02,-16.99 -5.05,-24.98 q 4.73,-12.72 19.2,-15.85 c 13.41,-2.9 27.19,-1.4 37.63,8.32 a 1.71,1.72 32.5 0 1 0.42,1.92 q -2.08,5.05 -6.66,8.82 a 1.25,1.25 0 0 1 -1.47,0.09 z"
     id="path172" />
  <path
     fill="#8e490b"
     d="m 967.90416,401.74216 q 1.8,-2.11 2.24,-2.64 c 6.65,-8 16.79,-10.18 26.59,-8.56 a 1.49,1.5 7.2 0 1 1.25,1.62 l -1.22,12.86 a 0.83,0.82 1.5 0 1 -0.8,0.75 c -11.7,0.4 -20.4,1.81 -26.51,12.95 q -2.19998,4.03 -2.25998,7.6 -0.29,19.52 0.06,46.84 a 1.17,1.17 0 0 1 -1.17,1.19 h -14.2 a 1.89,1.89 0 0 1 -1.89,-1.89 v -80.51 a 1.2,1.2 0 0 1 1.2,-1.2 h 12.29 a 2.13,2.14 84.8 0 1 2.1,1.75 l 1.67,9.07 a 0.37,0.37 0 0 0 0.64998,0.17 z"
     id="path173" />
  <path
     fill="#8e490b"
     d="m 1128.1242,457.20216 a 0.41,0.41 0 0 0 0.77,0.04 q 2.29,-5.48 4.39,-12.25 8.18,-26.37 16.74,-52.66 a 2.06,2.06 0 0 1 1.96,-1.43 h 14.42 a 0.81,0.81 0 0 1 0.8,0.94 q -0.43,2.57 -0.76,3.51 -10.14,28.68 -26.34,77.04 a 2.25,2.24 7.5 0 1 -2,1.53 q -7.38,0.42 -17.27,0.25 -2.36,-0.04 -3.06,-2.05 -10.86,-31.39 -25.41,-75.31 -1.01,-3.05 -1.33,-4.77 a 0.89,0.9 84.7 0 1 0.88,-1.06 h 15.93 a 0.97,0.96 81.4 0 1 0.92,0.69 z"
     id="path174" />
  <path
     fill="#090500"
     d="m 1190.9842,425.54216 a 0.45,0.45 0 0 1 -0.45,-0.44 v -0.27 a 23.1,18.64 89.8 0 1 18.56,-23.17 h 0.08 a 23.1,18.64 89.8 0 1 18.72,23.03 v 0.27 a 0.45,0.45 0 0 1 -0.45,0.46 z m 9.66,-7.94 16.98,-0.1 a 0.5,0.5 0 0 0 0.47,-0.66 c -1.36,-3.99 -4.6,-7.04 -9.06,-6.8 -4.43,0.24 -6.49,3.31 -8.77,6.87 a 0.45,0.45 0 0 0 0.38,0.69 z"
     id="path175" />
  <path
     fill="#090500"
     d="m 911.24418,430.50216 c 0.15,12.55 -3.63,28.38 -19.27,28.57 -15.65,0.19 -19.82,-15.53 -19.97,-28.08 -0.16,-12.55 3.62,-28.38 19.27,-28.57 15.64,-0.2 19.81,15.53 19.97,28.08 z m -8.29,0.12 c -0.02,-7.45 -1.29,-19.77 -11.49,-19.74 -10.2,0.03 -11.39,12.36 -11.37,19.81 0.02,7.45 1.29,19.77 11.49,19.74 10.19,-0.03 11.39,-12.36 11.37,-19.81 z"
     id="path176" />
  <path
     fill="#090500"
     d="m 1066.0742,432.54216 c -0.18,13.17 -4.58,29.66 -20.99,29.43 -16.41,-0.22 -20.35,-16.83 -20.17,-29.99 0.18,-13.17 4.58,-29.66 20.99,-29.43 16.41,0.22 20.36,16.83 20.17,29.99 z m -32.9,-0.35 c -0.05,7.96 1.18,21.14 12.08,21.21 10.9,0.07 12.29,-13.1 12.35,-21.06 0.05,-7.96 -1.19,-21.14 -12.08,-21.21 -10.9,-0.06 -12.3,13.1 -12.35,21.06 z"
     id="path177" />
  <path
     fill="#090500"
     d="m 1430.4142,402.68216 c 16.4,0.26 20.3,16.87 20.09,30.03 -0.21,13.15 -4.64,29.63 -21.05,29.37 -16.4,-0.27 -20.3,-16.88 -20.09,-30.03 0.21,-13.16 4.65,-29.64 21.05,-29.37 z m -12.68,29.7 c -0.06,7.97 1.16,21.19 12.08,21.27 10.92,0.08 12.34,-13.12 12.39,-21.09 0.06,-7.98 -1.16,-21.19 -12.08,-21.27 -10.92,-0.08 -12.33,13.11 -12.39,21.09 z"
     id="path178" />
  <path
     fill="#090500"
     d="m 1540.1542,432.57216 c -0.15,13.18 -4.51,29.7 -20.94,29.52 -16.43,-0.18 -20.42,-16.8 -20.28,-29.98 0.15,-13.18 4.51,-29.7 20.94,-29.52 16.43,0.18 20.42,16.8 20.28,29.98 z m -32.95,-0.39 c -0.06,7.99 1.17,21.23 12.11,21.31 10.95,0.08 12.37,-13.14 12.43,-21.13 0.06,-8 -1.17,-21.24 -12.11,-21.32 -10.95,-0.08 -12.37,13.14 -12.43,21.14 z"
     id="path179" />
  <path
     fill="#81a242"
     d="m 1089.2642,413.35216 q 0.08,0.12 0.03,0.43 a 0.08,0.09 21.5 0 1 -0.13,0.06 q -0.03,-0.03 -0.08,-0.42 a 0.1,0.1 0 0 1 0.18,-0.07 z"
     id="path185" />
</svg>
